<svg id="Layer_1" data-name="Layer 1" xmlns="http://www.w3.org/2000/svg" viewBox="0 0 100 100">
  <title>github</title>
  <path d="M91.56,27.08A47.75,47.75,0,0,0,74.09,9.61,46.94,46.94,0,0,0,50,3.17,46.94,46.94,0,0,0,25.91,9.61,47.75,47.75,0,0,0,8.44,27.08,47,47,0,0,0,2,51.17a46.61,46.61,0,0,0,9.16,28.22A47,47,0,0,0,34.81,96.73a2.79,2.79,0,0,0,2.5-.43,2.46,2.46,0,0,0,.81-1.88c0-.12,0-1.25,0-3.37s0-4,0-5.56l-1.44.24a18.11,18.11,0,0,1-3.47.22,26.68,26.68,0,0,1-4.34-.43,9.72,9.72,0,0,1-4.19-1.88,8,8,0,0,1-2.75-3.84l-.62-1.44a15.66,15.66,0,0,0-2-3.19,7.63,7.63,0,0,0-2.72-2.37l-.44-.31a4.74,4.74,0,0,1-.81-.75,3.49,3.49,0,0,1-.56-.88c-.13-.29,0-.53.31-.72a4,4,0,0,1,1.81-.28l1.25.19a9,9,0,0,1,3.1,1.5,10,10,0,0,1,3,3.25,10.9,10.9,0,0,0,3.47,3.9,7.33,7.33,0,0,0,4.09,1.35,18.27,18.27,0,0,0,3.56-.31,13,13,0,0,0,2.82-.94,10.07,10.07,0,0,1,3.06-6.44,42.81,42.81,0,0,1-6.41-1.13A25.77,25.77,0,0,1,29,68.8a17,17,0,0,1-5-4.19,20,20,0,0,1-3.28-6.56,31.05,31.05,0,0,1-1.29-9.38A18.23,18.23,0,0,1,24.31,35.8q-2.31-5.68.44-12.75,1.82-.57,5.37.84a36.82,36.82,0,0,1,5.22,2.41c1.11.66,2,1.23,2.66,1.68a45.25,45.25,0,0,1,24,0l2.38-1.49a33.41,33.41,0,0,1,5.74-2.76q3.31-1.25,5.07-.68,2.81,7.07.5,12.75a18.23,18.23,0,0,1,4.94,12.87,31.35,31.35,0,0,1-1.29,9.41A19.18,19.18,0,0,1,76,64.64,17.44,17.44,0,0,1,71,68.8a25.65,25.65,0,0,1-5.88,2.43,42.67,42.67,0,0,1-6.4,1.13q3.24,2.81,3.25,8.87V94.42a2.5,2.5,0,0,0,.78,1.88,2.74,2.74,0,0,0,2.47.43A47,47,0,0,0,88.84,79.39,46.61,46.61,0,0,0,98,51.17,46.94,46.94,0,0,0,91.56,27.08Z"/>
</svg>
