<svg id="Layer_1" data-name="Layer 1" xmlns="http://www.w3.org/2000/svg" viewBox="0 0 100 100">
  <title>mission-svg-3</title>
  <circle cx="49.86" cy="50.17" r="50" fill="#c4c4c4"/>
  <path d="M56.16,48.7a2.59,2.59,0,1,0-2.59-2.59A2.58,2.58,0,0,0,56.16,48.7Zm-12.09,0a2.59,2.59,0,1,0-2.59-2.59A2.58,2.58,0,0,0,44.07,48.7Zm6-15.54A17.27,17.27,0,1,0,67.39,50.43,17.27,17.27,0,0,0,50.1,33.16Zm0,31.09A13.82,13.82,0,1,1,63.93,50.43,13.81,13.81,0,0,1,50.11,64.25Zm0-6.91a6.92,6.92,0,0,1-6-3.45H41.27a9.5,9.5,0,0,0,17.69,0h-2.9A6.89,6.89,0,0,1,50.11,57.34Z" fill="#fff"/>
</svg>
