<svg id="Layer_1" data-name="Layer 1" xmlns="http://www.w3.org/2000/svg" viewBox="0 0 100 100">
  <title>paypal</title>
  <g>
    <g>
      <path d="M66.78,71.93H59.31a1,1,0,0,0-1,.87L55.27,92a.62.62,0,0,0,.61.72h3.83a.72.72,0,0,0,.72-.61l.86-5.43a1,1,0,0,1,1-.88h2.37c4.91,0,7.75-2.38,8.49-7.09a5.71,5.71,0,0,0-1-4.82C71.16,72.59,69.28,71.93,66.78,71.93Zm.86,7c-.41,2.68-2.45,2.68-4.43,2.68H62.08l.79-5a.63.63,0,0,1,.61-.53H64c1.35,0,2.62,0,3.28.77A2.49,2.49,0,0,1,67.64,78.92Z" fill="#009ade"/>
      <path d="M13.52,71.93H6.05a1,1,0,0,0-1,.87L2,92a.62.62,0,0,0,.61.72H6.19a1,1,0,0,0,1-.87L8,86.63a1,1,0,0,1,1-.88h2.37c4.91,0,7.75-2.38,8.49-7.09A5.71,5.71,0,0,0,19,73.84C17.9,72.59,16,71.93,13.52,71.93Zm.86,7C14,81.6,11.93,81.6,10,81.6H8.82l.79-5a.63.63,0,0,1,.61-.53h.52c1.35,0,2.62,0,3.28.77A2.49,2.49,0,0,1,14.38,78.92Z" fill="#002f87"/>
      <path d="M35.84,78.84H32.26a.62.62,0,0,0-.61.52l-.16,1L31.24,80c-.77-1.12-2.5-1.5-4.22-1.5a8.21,8.21,0,0,0-8,7.19,6.73,6.73,0,0,0,1.33,5.5A5.6,5.6,0,0,0,24.87,93a6.86,6.86,0,0,0,4.95-2l-.16,1a.62.62,0,0,0,.62.72H33.5a1,1,0,0,0,1-.87l1.93-12.24A.62.62,0,0,0,35.84,78.84Zm-5,7a4,4,0,0,1-4,3.41,3,3,0,0,1-2.4-1,3,3,0,0,1-.56-2.52,4,4,0,0,1,4-3.44,3,3,0,0,1,2.38,1A3.1,3.1,0,0,1,30.86,85.8Z" fill="#002f87"/>
      <path d="M89.1,78.84H85.52a.62.62,0,0,0-.61.52l-.16,1L84.5,80c-.77-1.12-2.5-1.5-4.22-1.5a8.21,8.21,0,0,0-8,7.19,6.73,6.73,0,0,0,1.33,5.5A5.6,5.6,0,0,0,78.13,93a6.86,6.86,0,0,0,5-2l-.16,1a.62.62,0,0,0,.62.72h3.22a1,1,0,0,0,1-.87l1.93-12.24A.62.62,0,0,0,89.1,78.84Zm-5,7a4,4,0,0,1-4,3.41,3,3,0,0,1-2.4-1,3,3,0,0,1-.56-2.52,4,4,0,0,1,4-3.44,3,3,0,0,1,2.38,1A3.1,3.1,0,0,1,84.12,85.8Z" fill="#009ade"/>
      <path d="M54.88,78.84H51.29a1,1,0,0,0-.86.45l-5,7.3-2.1-7a1,1,0,0,0-1-.74H38.85a.62.62,0,0,0-.59.82l4,11.62-3.72,5.25a.62.62,0,0,0,.51,1h3.59a1,1,0,0,0,.85-.45l12-17.25A.61.61,0,0,0,54.88,78.84Z" fill="#002f87"/>
      <path d="M93.31,72.45,90.25,92a.62.62,0,0,0,.61.72H94a1,1,0,0,0,1-.87l3-19.15a.62.62,0,0,0-.61-.72H93.93A.62.62,0,0,0,93.31,72.45Z" fill="#009ade"/>
    </g>
    <g>
      <path d="M73.28,18.23c.76-4.82,0-8.1-2.61-11.07C67.8,3.89,62.62,2.49,56,2.49H36.73A2.76,2.76,0,0,0,34,4.82L26,55.66a1.64,1.64,0,0,0,1.63,1.91H39.51l-.82,5.21a1.45,1.45,0,0,0,1.42,1.67h10a2.41,2.41,0,0,0,2.38-2l.1-.51,1.89-12,.12-.66a2.42,2.42,0,0,1,2.38-2h1.5c9.71,0,17.31-4,19.53-15.35.93-4.77.45-8.75-2-11.54a9.57,9.57,0,0,0-2.75-2.12h0" fill="#009ade"/>
      <path d="M73.28,18.23c.76-4.82,0-8.1-2.61-11.07C67.8,3.89,62.62,2.49,56,2.49H36.73A2.76,2.76,0,0,0,34,4.82L26,55.66a1.64,1.64,0,0,0,1.63,1.91H39.51l3-18.93-.09.59a2.75,2.75,0,0,1,2.71-2.33h5.65c11.1,0,19.79-4.5,22.33-17.54.07-.39.14-.76.19-1.13" fill="#002169"/>
      <path d="M45.7,18.29A2.4,2.4,0,0,1,47,16.5a2.3,2.3,0,0,1,1-.24h15.1a32.29,32.29,0,0,1,5,.36c.43.07.85.15,1.27.24l1.2.31.57.18a14,14,0,0,1,2.08.88c.76-4.82,0-8.1-2.61-11.07C67.8,3.89,62.62,2.49,56,2.49H36.73A2.76,2.76,0,0,0,34,4.82L26,55.66a1.64,1.64,0,0,0,1.63,1.91H39.51l3-18.93Z" fill="#002f87"/>
    </g>
  </g>
</svg>
