<svg id="Layer_1" data-name="Layer 1" xmlns="http://www.w3.org/2000/svg" viewBox="0 0 100 100">
  <title>slack</title>
  <g>
    <path d="M22.17,62.66A10.09,10.09,0,1,1,12.08,52.58H22.17Z" fill="#e01e5a"/>
    <path d="M27.25,62.66a10.09,10.09,0,0,1,20.17,0V87.92a10.09,10.09,0,0,1-20.17,0Z" fill="#e01e5a"/>
    <path d="M37.34,22.17A10.09,10.09,0,1,1,47.42,12.08V22.17Z" fill="#36c5f0"/>
    <path d="M37.34,27.25a10.09,10.09,0,0,1,0,20.17H12.08a10.09,10.09,0,0,1,0-20.17Z" fill="#36c5f0"/>
    <path d="M77.83,37.34A10.09,10.09,0,1,1,87.92,47.42H77.83Z" fill="#2eb67d"/>
    <path d="M72.75,37.34a10.09,10.09,0,0,1-20.17,0V12.08a10.09,10.09,0,0,1,20.17,0Z" fill="#2eb67d"/>
    <path d="M62.66,77.83A10.09,10.09,0,1,1,52.58,87.92V77.83Z" fill="#ecb22e"/>
    <path d="M62.66,72.75a10.09,10.09,0,0,1,0-20.17H87.92a10.09,10.09,0,0,1,0,20.17Z" fill="#ecb22e"/>
  </g>
</svg>
