<svg xmlns="http://www.w3.org/2000/svg" xmlns:xlink="http://www.w3.org/1999/xlink" viewBox="0 0 312 72">
  <defs>
    <linearGradient id="linear-gradient" x1="298.34" y1="-75.73" x2="347.38" y2="-67.08" gradientTransform="matrix(0, 1, 1, 0, 95.02, -287.69)" gradientUnits="userSpaceOnUse">
      <stop offset="0" stop-color="#d31509"/>
      <stop offset="0.1" stop-color="#d92531"/>
      <stop offset="0.22" stop-color="#de3254"/>
      <stop offset="0.33" stop-color="#e33d70"/>
      <stop offset="0.44" stop-color="#e64583"/>
      <stop offset="0.56" stop-color="#e7498f"/>
      <stop offset="0.68" stop-color="#e84b93"/>
      <stop offset="0.72" stop-color="#e7498d"/>
      <stop offset="0.78" stop-color="#e5427c"/>
      <stop offset="0.85" stop-color="#e03760"/>
      <stop offset="0.92" stop-color="#da2839"/>
      <stop offset="1" stop-color="#d31509"/>
    </linearGradient>
  </defs>
  <title>Mutual Aid</title>
  <g>
    <path d="M96.67,47.64h3.91v5.6a13.23,13.23,0,0,1-1.86.44,14.12,14.12,0,0,1-2.19.15,5.33,5.33,0,0,1-4.07-1.55A6.14,6.14,0,0,1,91,47.92a6.56,6.56,0,0,1,.72-3.14,4.84,4.84,0,0,1,2.07-2.06A6.68,6.68,0,0,1,97,42a8.64,8.64,0,0,1,3.43.68l-.51,1.18a7.69,7.69,0,0,0-3-.66,4.29,4.29,0,0,0-3.28,1.25,4.83,4.83,0,0,0-1.18,3.47,4.94,4.94,0,0,0,1.13,3.53,4.35,4.35,0,0,0,3.34,1.21,9.61,9.61,0,0,0,2.34-.28V48.84H96.67Zm7.79,6h-1.31V41.43h1.31Zm10.21-4.32a4.76,4.76,0,0,1-1.06,3.3,3.75,3.75,0,0,1-2.94,1.18,3.9,3.9,0,0,1-2-.54,3.56,3.56,0,0,1-1.38-1.56,5.38,5.38,0,0,1-.49-2.38,4.75,4.75,0,0,1,1-3.28,3.71,3.71,0,0,1,2.93-1.18,3.64,3.64,0,0,1,2.87,1.2A4.76,4.76,0,0,1,114.67,49.35Zm-6.57,0a4.11,4.11,0,0,0,.66,2.52,2.29,2.29,0,0,0,1.94.87,2.31,2.31,0,0,0,2-.86,4.06,4.06,0,0,0,.67-2.53,3.93,3.93,0,0,0-.67-2.49,2.66,2.66,0,0,0-3.9,0A4.09,4.09,0,0,0,108.1,49.35ZM121,44.91a3.2,3.2,0,0,1,2.64,1.16,5.07,5.07,0,0,1,.94,3.28,5.12,5.12,0,0,1-1,3.31A3.2,3.2,0,0,1,121,53.83a3.72,3.72,0,0,1-1.54-.31,2.9,2.9,0,0,1-1.16-1h-.1l-.27,1.11H117V41.43h1.31v3c0,.67,0,1.27-.07,1.8h.07A3.09,3.09,0,0,1,121,44.91ZM120.79,46a2.27,2.27,0,0,0-1.92.77,4.26,4.26,0,0,0-.59,2.58,4.4,4.4,0,0,0,.6,2.61,2.3,2.3,0,0,0,1.94.78,2,2,0,0,0,1.8-.88,4.56,4.56,0,0,0,.59-2.52,4.34,4.34,0,0,0-.59-2.51A2.09,2.09,0,0,0,120.79,46Zm11.37,7.67-.26-1.23h-.07a3.76,3.76,0,0,1-1.29,1.11,3.87,3.87,0,0,1-1.59.28,2.91,2.91,0,0,1-2-.66,2.43,2.43,0,0,1-.72-1.88c0-1.74,1.39-2.66,4.18-2.74l1.46,0V48a2.18,2.18,0,0,0-.44-1.5A1.79,1.79,0,0,0,130,46a5.56,5.56,0,0,0-2.44.67l-.4-1a5.52,5.52,0,0,1,1.39-.55,6.15,6.15,0,0,1,1.52-.19,3.28,3.28,0,0,1,2.29.68,2.85,2.85,0,0,1,.74,2.2v5.88Zm-3-.92a2.63,2.63,0,0,0,1.92-.67,2.48,2.48,0,0,0,.7-1.87v-.78l-1.31.06a4.76,4.76,0,0,0-2.25.48,1.45,1.45,0,0,0-.68,1.33,1.34,1.34,0,0,0,.42,1.08A1.78,1.78,0,0,0,129.2,52.75Zm7.93.92h-1.31V41.43h1.31ZM149.21,43.2a3.74,3.74,0,0,0-3,1.27,5.06,5.06,0,0,0-1.09,3.45,5.21,5.21,0,0,0,1,3.49,3.78,3.78,0,0,0,3,1.23,10.22,10.22,0,0,0,2.75-.43v1.17a8.44,8.44,0,0,1-2.95.45,5,5,0,0,1-3.93-1.54,6.37,6.37,0,0,1-1.38-4.39,6.82,6.82,0,0,1,.67-3.11,4.73,4.73,0,0,1,1.92-2.06,5.71,5.71,0,0,1,2.95-.73,7.18,7.18,0,0,1,3.17.66l-.57,1.15A6.07,6.07,0,0,0,149.21,43.2Zm12.49,6.15a4.76,4.76,0,0,1-1.07,3.3,3.71,3.71,0,0,1-2.93,1.18,3.93,3.93,0,0,1-2.06-.54,3.69,3.69,0,0,1-1.38-1.56,5.52,5.52,0,0,1-.49-2.38,4.71,4.71,0,0,1,1.06-3.28,3.7,3.7,0,0,1,2.92-1.18,3.66,3.66,0,0,1,2.88,1.2A4.76,4.76,0,0,1,161.7,49.35Zm-6.57,0a4.11,4.11,0,0,0,.66,2.52,2.61,2.61,0,0,0,3.88,0,4.06,4.06,0,0,0,.67-2.53,3.93,3.93,0,0,0-.67-2.49,2.32,2.32,0,0,0-2-.86,2.29,2.29,0,0,0-1.93.84A4,4,0,0,0,155.13,49.35ZM175,53.67V48.06a2.32,2.32,0,0,0-.44-1.54,1.69,1.69,0,0,0-1.37-.52,2.18,2.18,0,0,0-1.8.7,3.34,3.34,0,0,0-.59,2.16v4.81h-1.3V48.06a2.32,2.32,0,0,0-.44-1.54,1.72,1.72,0,0,0-1.38-.52,2.14,2.14,0,0,0-1.8.74,4,4,0,0,0-.57,2.41v4.52H164V45.05h1.07l.21,1.18h.06a2.61,2.61,0,0,1,1-1,3.29,3.29,0,0,1,1.51-.35,2.58,2.58,0,0,1,2.65,1.46h.06a2.82,2.82,0,0,1,1.12-1.07,3.45,3.45,0,0,1,1.66-.39,2.87,2.87,0,0,1,2.19.76,3.3,3.3,0,0,1,.73,2.4v5.62Zm15,0V48.06a2.32,2.32,0,0,0-.44-1.54,1.71,1.71,0,0,0-1.37-.52,2.21,2.21,0,0,0-1.81.7,3.4,3.4,0,0,0-.58,2.16v4.81h-1.3V48.06a2.27,2.27,0,0,0-.45-1.54,1.68,1.68,0,0,0-1.37-.52,2.14,2.14,0,0,0-1.8.74,4,4,0,0,0-.57,2.41v4.52H179V45.05h1.07l.21,1.18h.06a2.61,2.61,0,0,1,1-1,3.26,3.26,0,0,1,1.51-.35,2.56,2.56,0,0,1,2.64,1.46h.07a2.79,2.79,0,0,1,1.11-1.07,3.52,3.52,0,0,1,1.67-.39,2.87,2.87,0,0,1,2.19.76,3.3,3.3,0,0,1,.73,2.4v5.62Zm5.23-8.62v5.59a2.26,2.26,0,0,0,.48,1.58,2,2,0,0,0,1.5.52,2.47,2.47,0,0,0,2-.74,3.73,3.73,0,0,0,.63-2.42V45.05h1.3v8.62H200l-.18-1.15h-.08a2.51,2.51,0,0,1-1.11,1,3.67,3.67,0,0,1-1.62.34,3.29,3.29,0,0,1-2.36-.75,3.18,3.18,0,0,1-.78-2.39V45.05Zm14.57,8.62V48.09a2.25,2.25,0,0,0-.48-1.57,1.94,1.94,0,0,0-1.5-.52,2.47,2.47,0,0,0-2,.73,3.7,3.7,0,0,0-.63,2.42v4.52h-1.31V45.05H205l.21,1.18h.07a2.7,2.7,0,0,1,1.12-1,3.74,3.74,0,0,1,1.62-.35,3.22,3.22,0,0,1,2.34.76,3.14,3.14,0,0,1,.79,2.4v5.62Zm5.31,0h-1.31V45.05h1.31Zm-1.42-11a.82.82,0,0,1,.22-.65.79.79,0,0,1,1.09,0,.82.82,0,0,1,.23.65.86.86,0,0,1-.23.66.81.81,0,0,1-1.09,0A.89.89,0,0,1,213.68,42.71Zm7,10a3.64,3.64,0,0,0,.67,0,2.89,2.89,0,0,0,.51-.11v1a2.14,2.14,0,0,1-.63.17,4.08,4.08,0,0,1-.74.07c-1.67,0-2.5-.88-2.5-2.64V46.06h-1.24v-.63l1.24-.54.55-1.84h.76v2h2.5v1h-2.5v5.08a1.7,1.7,0,0,0,.37,1.19A1.26,1.26,0,0,0,220.65,52.75Zm1.54-7.7h1.4L225.48,50a17.66,17.66,0,0,1,.77,2.43h.07c.07-.27.21-.73.42-1.37s.94-2.65,2.14-6h1.4l-3.7,9.82a4.87,4.87,0,0,1-1.29,2.06,2.72,2.72,0,0,1-1.81.61,5.27,5.27,0,0,1-1.18-.13v-1a4.19,4.19,0,0,0,1,.1A2,2,0,0,0,225.19,55l.48-1.23Zm10.86,6.75.12.18c-.14.52-.33,1.13-.59,1.83s-.52,1.34-.8,1.94h-1c.15-.55.3-1.22.47-2s.29-1.45.36-1.93Zm7,1.87V42.17h1.33V52.46h5.08v1.21Zm15.62-4.32a4.76,4.76,0,0,1-1.07,3.3,3.71,3.71,0,0,1-2.93,1.18,3.87,3.87,0,0,1-2-.54,3.64,3.64,0,0,1-1.39-1.56,5.52,5.52,0,0,1-.49-2.38,4.71,4.71,0,0,1,1.06-3.28,3.7,3.7,0,0,1,2.92-1.18,3.66,3.66,0,0,1,2.88,1.2A4.76,4.76,0,0,1,255.64,49.35Zm-6.57,0a4.11,4.11,0,0,0,.66,2.52,2.61,2.61,0,0,0,3.88,0,4.06,4.06,0,0,0,.67-2.53,3.93,3.93,0,0,0-.67-2.49,2.65,2.65,0,0,0-3.89,0A4,4,0,0,0,249.07,49.35Zm12.31,4.48a3.67,3.67,0,0,1-2.9-1.15,4.78,4.78,0,0,1-1-3.27,4.91,4.91,0,0,1,1-3.34,3.76,3.76,0,0,1,3-1.18,5.81,5.81,0,0,1,1.24.13,4.16,4.16,0,0,1,1,.32l-.4,1.11a5.27,5.27,0,0,0-1-.28,4,4,0,0,0-.9-.12c-1.76,0-2.63,1.11-2.63,3.35a4,4,0,0,0,.64,2.44,2.22,2.22,0,0,0,1.9.85,5.78,5.78,0,0,0,2.21-.47v1.16A4.7,4.7,0,0,1,261.38,53.83Zm9.54-.16-.26-1.23h-.06a3.76,3.76,0,0,1-1.29,1.11,4,4,0,0,1-1.6.28,2.91,2.91,0,0,1-2-.66,2.43,2.43,0,0,1-.72-1.88c0-1.74,1.39-2.66,4.18-2.74l1.46,0V48a2.18,2.18,0,0,0-.44-1.5,1.79,1.79,0,0,0-1.39-.49,5.59,5.59,0,0,0-2.44.67l-.4-1a5.68,5.68,0,0,1,1.39-.55,6.17,6.17,0,0,1,1.53-.19,3.24,3.24,0,0,1,2.28.68,2.86,2.86,0,0,1,.75,2.2v5.88ZM268,52.75a2.62,2.62,0,0,0,1.91-.67,2.44,2.44,0,0,0,.7-1.87v-.78l-1.31.06A4.83,4.83,0,0,0,267,50a1.47,1.47,0,0,0-.68,1.33,1.34,1.34,0,0,0,.42,1.08A1.79,1.79,0,0,0,268,52.75Zm7.92.92h-1.3V41.43h1.3Zm14.39,0L288.84,50h-4.61l-1.41,3.66h-1.36L286,42.12h1.13l4.52,11.55Zm-1.85-4.86-1.34-3.57c-.17-.45-.35-1-.54-1.66a14.16,14.16,0,0,1-.49,1.66l-1.35,3.57Zm5.92,4.86h-1.3V45.05h1.3Zm-1.41-11a.82.82,0,0,1,.22-.65.76.76,0,0,1,.55-.22.77.77,0,0,1,.54.22.86.86,0,0,1,.23.65.9.9,0,0,1-.23.66.76.76,0,0,1-.54.21.75.75,0,0,1-.55-.21A.89.89,0,0,1,292.94,42.71ZM303,52.52h-.07a3.07,3.07,0,0,1-2.7,1.31,3.22,3.22,0,0,1-2.64-1.16,5.06,5.06,0,0,1-.94-3.29,5.18,5.18,0,0,1,.95-3.31,3.49,3.49,0,0,1,5.32.1h.1l-.06-.63,0-.6V41.43h1.31V53.67h-1.06Zm-2.61.22a2.4,2.4,0,0,0,1.94-.73,3.7,3.7,0,0,0,.6-2.35v-.28a4.28,4.28,0,0,0-.61-2.61,2.32,2.32,0,0,0-1.95-.79,2,2,0,0,0-1.76.9,4.47,4.47,0,0,0-.6,2.52,4.27,4.27,0,0,0,.6,2.49A2,2,0,0,0,300.38,52.74Zm6.44.1a1.23,1.23,0,0,1,.23-.8.91.91,0,0,1,.7-.27.9.9,0,0,1,.7.27,1.09,1.09,0,0,1,.26.8,1.05,1.05,0,0,1-.26.78.9.9,0,0,1-.7.28,1,1,0,0,1-.67-.24A1.08,1.08,0,0,1,306.82,52.84Z" fill="#150e60"/>
    <path d="M106.38,31.45V19.61c0-.27,0-.53,0-.8s0-1.42.13-3.46c-.65,2.49-1.14,4.22-1.45,5.2l-3.51,10.9h-2.9l-3.51-10.9-1.47-5.2c.1,2.14.16,3.57.16,4.26V31.45H90.22V11.91h5.46l3.48,10.93.3,1.06.66,2.62.87-3.13,3.57-11.48H110V31.45Z" fill="#150e60"/>
    <path d="M117,16.45v8.41c0,2.63.89,3.95,2.65,3.95A2.65,2.65,0,0,0,122,27.59a5.27,5.27,0,0,0,.86-3.11v-8h3.88V28.08c0,1.27,0,2.39.11,3.36h-3.7c-.11-1.33-.17-2.33-.17-3h-.06a5.56,5.56,0,0,1-2,2.48,5.1,5.1,0,0,1-2.84.77,4.58,4.58,0,0,1-3.65-1.47A6.33,6.33,0,0,1,113.15,26v-9.5Z" fill="#150e60"/>
    <path d="M134,31.7a3.56,3.56,0,0,1-2.64-.93,3.87,3.87,0,0,1-.92-2.84V19.08h-1.9V16.45h2.09l1.21-3.52h2.44v3.52h2.83v2.63h-2.83v7.79a2.62,2.62,0,0,0,.41,1.62A1.56,1.56,0,0,0,136,29a6.34,6.34,0,0,0,1.3-.2v2.4A10.38,10.38,0,0,1,134,31.7Z" fill="#150e60"/>
    <path d="M142.71,16.45v8.41c0,2.63.89,3.95,2.65,3.95a2.64,2.64,0,0,0,2.28-1.22,5.27,5.27,0,0,0,.87-3.11v-8h3.87V28.08c0,1.27,0,2.39.11,3.36h-3.7c-.11-1.33-.17-2.33-.17-3h-.06a5.56,5.56,0,0,1-2,2.48,5.1,5.1,0,0,1-2.84.77,4.59,4.59,0,0,1-3.65-1.47A6.39,6.39,0,0,1,138.83,26v-9.5Z" fill="#150e60"/>
    <path d="M159.28,31.72a4.64,4.64,0,0,1-3.38-1.18,4.46,4.46,0,0,1-1.21-3.34,4.26,4.26,0,0,1,1.52-3.54,6.9,6.9,0,0,1,4.38-1.25l3.22-.06v-.76a3.81,3.81,0,0,0-.51-2.19,1.93,1.93,0,0,0-1.67-.71,2.2,2.2,0,0,0-1.58.49,2.68,2.68,0,0,0-.63,1.63l-4-.2a4.79,4.79,0,0,1,2-3.31,7.57,7.57,0,0,1,4.43-1.14,6.21,6.21,0,0,1,4.36,1.41,5.12,5.12,0,0,1,1.54,4V27a3.89,3.89,0,0,0,.28,1.74,1,1,0,0,0,.94.47,4.74,4.74,0,0,0,.86-.08v2.11l-.62.15-.55.11c-.19,0-.38.05-.59.06s-.45,0-.72,0a2.91,2.91,0,0,1-2.17-.71,3.41,3.41,0,0,1-.83-2.12h-.09A5.31,5.31,0,0,1,159.28,31.72Zm4.52-7.22-2,0a6.21,6.21,0,0,0-1.92.29,1.86,1.86,0,0,0-.87.74,2.68,2.68,0,0,0-.29,1.33,2.2,2.2,0,0,0,.49,1.58,1.69,1.69,0,0,0,1.31.53,2.93,2.93,0,0,0,1.67-.51,3.4,3.4,0,0,0,1.18-1.38,4.23,4.23,0,0,0,.43-1.86V24.5Z" fill="#150e60"/>
    <path d="M171.06,31.45V10.87h3.87V31.45Z" fill="#150e60"/>
    <path d="M192.08,31.45l-1.72-5h-7.42l-1.72,5h-4.08l7.11-19.54h4.81l7.07,19.54Zm-5.44-16.53-.08.3c-.09.34-.21.72-.34,1.14s-.92,2.76-2.37,7h5.6l-1.92-5.62-.59-1.89Z" fill="#150e60"/>
    <path d="M198.33,13.74V10.87h3.88v2.87Zm0,17.71v-15h3.88v15Z" fill="#150e60"/>
    <path d="M215.37,31.45c0-.14-.08-.49-.13-1a13.06,13.06,0,0,1-.08-1.39h0c-.83,1.81-2.44,2.71-4.78,2.71a4.62,4.62,0,0,1-4-2A9.89,9.89,0,0,1,204.88,24a9.56,9.56,0,0,1,1.5-5.76,4.94,4.94,0,0,1,4.24-2,5.27,5.27,0,0,1,2.74.66,4.36,4.36,0,0,1,1.78,2h0l0-2.47V10.87H219V28.18c0,.92,0,2,.11,3.27Zm-.19-7.59a7.16,7.16,0,0,0-.81-3.74A2.63,2.63,0,0,0,212,18.81a2.52,2.52,0,0,0-2.32,1.27,7.72,7.72,0,0,0-.76,3.88q0,5.1,3.06,5.1a2.63,2.63,0,0,0,2.37-1.35A7.31,7.31,0,0,0,215.18,23.86Z" fill="#150e60"/>
    <path d="M222.4,31.45V27.22h4v4.23Z" fill="#150e60"/>
    <path d="M249.48,31.45h-4.83L242,20.14q-.48-2-.81-4.17-.33,1.81-.54,2.76t-3,12.71h-4.83l-5-19.54H232l2.82,12.63.64,3c.26-1.28.51-2.51.76-3.69s1.16-5.16,2.75-12h4.56L246,22.31q.28,1.15,1,5.27L247.3,26l.74-3.18,2.35-10.88h4.12Z" fill="#150e60"/>
    <path d="M269.7,23.94a7.85,7.85,0,0,1-2,5.72,7.45,7.45,0,0,1-5.58,2.08,7.23,7.23,0,0,1-5.48-2.08,7.93,7.93,0,0,1-2-5.71,7.86,7.86,0,0,1,2-5.7,8.65,8.65,0,0,1,11.15-.07A8,8,0,0,1,269.7,23.94Zm-4.06,0a6.74,6.74,0,0,0-.87-3.88,2.9,2.9,0,0,0-2.52-1.21c-2.36,0-3.53,1.7-3.53,5.09a7,7,0,0,0,.86,3.82,2.82,2.82,0,0,0,2.49,1.31C264.44,29.06,265.64,27.35,265.64,23.94Z" fill="#150e60"/>
    <path d="M272.27,31.45V20c0-.83,0-1.51,0-2s0-1.05-.07-1.47h3.7A13.77,13.77,0,0,1,276,18c0,.85.07,1.4.07,1.68h0a11,11,0,0,1,1-2.22,2.81,2.81,0,0,1,1-1,3.25,3.25,0,0,1,1.51-.32,3,3,0,0,1,1.21.21v3.26a7.68,7.68,0,0,0-1.66-.2A2.6,2.6,0,0,0,277,20.59a6.08,6.08,0,0,0-.82,3.49v7.36h-3.86Z" fill="#150e60"/>
    <path d="M282.76,31.45V10.87h3.88V31.45Z" fill="#150e60"/>
    <path d="M299.8,31.45c0-.14-.08-.49-.13-1s-.08-1-.08-1.39h0c-.83,1.81-2.44,2.71-4.78,2.71a4.6,4.6,0,0,1-4-2A9.82,9.82,0,0,1,289.32,24a9.56,9.56,0,0,1,1.49-5.76,5,5,0,0,1,4.25-2,5.32,5.32,0,0,1,2.74.66,4.34,4.34,0,0,1,1.77,2h0l0-2.47V10.87h3.88V28.18c0,.92,0,2,.11,3.27Zm-.17-7.59a7.16,7.16,0,0,0-.81-3.74,2.66,2.66,0,0,0-2.39-1.31,2.51,2.51,0,0,0-2.32,1.27,7.74,7.74,0,0,0-.75,3.88c0,3.4,1,5.1,3.05,5.1a2.64,2.64,0,0,0,2.37-1.35A7.21,7.21,0,0,0,299.63,23.86Z" fill="#150e60"/>
  </g>
  <g>
    <path d="M19.22,61.13C9.16,61.13,1,49.87,1,36S9.16,10.87,19.22,10.87c3.76,0,14.27,4.3,18.22,4.3,15.86,0-3.17,10-3.17,20.82s18.41,19.35,4.58,19.35C34.08,55.34,23.63,61.13,19.22,61.13Z" fill="url(#linear-gradient)"/>
    <path d="M71.81,61.13c0-14.1-4.31-23.93-18.4-23.93-16.21,0-21.69,23.93-36.09,23.93Z" fill="#150e60"/>
    <path d="M71.81,10.87c0,14.1-4.31,23.93-18.4,23.93-16.21,0-21.69-23.93-36.09-23.93Z" fill="#150e60"/>
  </g>
</svg>
