<svg xmlns="http://www.w3.org/2000/svg" xmlns:xlink="http://www.w3.org/1999/xlink" viewBox="0 0 347 72">
  <defs>
    <linearGradient id="linear-gradient" x1="301.87" y1="-78.9" x2="349.67" y2="-70.47" gradientTransform="matrix(0, 1, 1, 0, 97.58, -290.25)" gradientUnits="userSpaceOnUse">
      <stop offset="0" stop-color="#d31509"/>
      <stop offset="0.1" stop-color="#d92531"/>
      <stop offset="0.22" stop-color="#de3254"/>
      <stop offset="0.33" stop-color="#e33d70"/>
      <stop offset="0.44" stop-color="#e64583"/>
      <stop offset="0.56" stop-color="#e7498f"/>
      <stop offset="0.68" stop-color="#e84b93"/>
      <stop offset="0.72" stop-color="#e7498d"/>
      <stop offset="0.78" stop-color="#e5427c"/>
      <stop offset="0.85" stop-color="#e03760"/>
      <stop offset="0.92" stop-color="#da2839"/>
      <stop offset="1" stop-color="#d31509"/>
    </linearGradient>
  </defs>
  <title>Mutual Aid</title>
  <g>
    <path d="M99.24,53.13h4.5v6.43a15.5,15.5,0,0,1-2.14.51,16.79,16.79,0,0,1-2.51.17,6.11,6.11,0,0,1-4.68-1.78,7.1,7.1,0,0,1-1.67-5,7.66,7.66,0,0,1,.82-3.61A5.58,5.58,0,0,1,96,47.47a7.68,7.68,0,0,1,3.65-.82,9.93,9.93,0,0,1,3.94.78l-.6,1.35A8.9,8.9,0,0,0,99.5,48a4.92,4.92,0,0,0-3.77,1.44,5.56,5.56,0,0,0-1.36,4,5.71,5.71,0,0,0,1.3,4.06,5.07,5.07,0,0,0,3.84,1.38,11.44,11.44,0,0,0,2.69-.31V54.51h-3Zm9,6.93h-1.51V46h1.51Zm11.73-5a5.45,5.45,0,0,1-1.22,3.79,4.27,4.27,0,0,1-3.37,1.36,4.52,4.52,0,0,1-2.36-.62,4.14,4.14,0,0,1-1.59-1.79,6.18,6.18,0,0,1-.56-2.74A5.44,5.44,0,0,1,112,51.32,4.29,4.29,0,0,1,115.4,50a4.17,4.17,0,0,1,3.3,1.38A5.42,5.42,0,0,1,119.93,55.09Zm-7.55,0a4.77,4.77,0,0,0,.76,2.9,3,3,0,0,0,4.47,0,4.72,4.72,0,0,0,.77-2.91,4.56,4.56,0,0,0-.77-2.86,3.05,3.05,0,0,0-4.48,0A4.65,4.65,0,0,0,112.38,55.09ZM127.19,50a3.68,3.68,0,0,1,3,1.34,5.86,5.86,0,0,1,1.08,3.77,5.89,5.89,0,0,1-1.09,3.8,3.67,3.67,0,0,1-3,1.35,4.49,4.49,0,0,1-1.78-.35,3.3,3.3,0,0,1-1.33-1.11H124l-.32,1.28h-1.08V46h1.51v3.42c0,.76,0,1.45-.08,2.06h.08A3.56,3.56,0,0,1,127.19,50ZM127,51.24a2.63,2.63,0,0,0-2.22.89,5,5,0,0,0-.67,3,5,5,0,0,0,.69,3A2.69,2.69,0,0,0,127,59a2.31,2.31,0,0,0,2.06-1,5.22,5.22,0,0,0,.68-2.9,5,5,0,0,0-.68-2.89A2.41,2.41,0,0,0,127,51.24ZM140,60.06l-.3-1.41h-.07a4.17,4.17,0,0,1-1.49,1.26,4.44,4.44,0,0,1-1.83.33,3.33,3.33,0,0,1-2.32-.76,2.8,2.8,0,0,1-.83-2.16q0-3,4.8-3.15l1.69-.05V53.5a2.47,2.47,0,0,0-.51-1.72,2.06,2.06,0,0,0-1.6-.56,6.67,6.67,0,0,0-2.81.76l-.46-1.15a7.49,7.49,0,0,1,1.6-.62,7.09,7.09,0,0,1,1.76-.23,3.78,3.78,0,0,1,2.62.79,3.3,3.3,0,0,1,.86,2.52v6.77ZM136.64,59a3,3,0,0,0,2.19-.77,2.82,2.82,0,0,0,.81-2.15v-.9l-1.5.07a5.44,5.44,0,0,0-2.59.56,1.67,1.67,0,0,0-.79,1.53,1.59,1.59,0,0,0,.49,1.24A2.12,2.12,0,0,0,136.64,59Zm9.1,1.06h-1.5V46h1.5Zm13.89-12a4.33,4.33,0,0,0-3.45,1.46,5.84,5.84,0,0,0-1.26,4,6,6,0,0,0,1.21,4,4.37,4.37,0,0,0,3.48,1.41,11.83,11.83,0,0,0,3.15-.49v1.34a9.51,9.51,0,0,1-3.39.52,5.74,5.74,0,0,1-4.51-1.77,7.29,7.29,0,0,1-1.58-5,7.93,7.93,0,0,1,.76-3.58,5.43,5.43,0,0,1,2.2-2.37,6.77,6.77,0,0,1,3.4-.83,8.16,8.16,0,0,1,3.64.76l-.65,1.32A7,7,0,0,0,159.63,48ZM174,55.09a5.5,5.5,0,0,1-1.22,3.79,4.31,4.31,0,0,1-3.38,1.36,4.54,4.54,0,0,1-2.36-.62,4.2,4.2,0,0,1-1.59-1.79,6.32,6.32,0,0,1-.56-2.74,5.44,5.44,0,0,1,1.21-3.77A4.3,4.3,0,0,1,169.45,50a4.2,4.2,0,0,1,3.3,1.38A5.42,5.42,0,0,1,174,55.09Zm-7.55,0a4.78,4.78,0,0,0,.75,2.9,3,3,0,0,0,4.47,0,4.72,4.72,0,0,0,.77-2.91,4.56,4.56,0,0,0-.77-2.86,2.66,2.66,0,0,0-2.25-1,2.62,2.62,0,0,0-2.22,1A4.65,4.65,0,0,0,166.43,55.09Zm22.82,5V53.61a2.63,2.63,0,0,0-.51-1.77,1.93,1.93,0,0,0-1.57-.6,2.54,2.54,0,0,0-2.07.81,3.78,3.78,0,0,0-.67,2.47v5.54h-1.5V53.61a2.63,2.63,0,0,0-.51-1.77,2,2,0,0,0-1.58-.6,2.48,2.48,0,0,0-2.07.85,4.6,4.6,0,0,0-.65,2.77v5.2h-1.5V50.15h1.22l.24,1.35h.07a3,3,0,0,1,1.2-1.13,3.7,3.7,0,0,1,1.73-.4,2.94,2.94,0,0,1,3,1.68h.07a3.19,3.19,0,0,1,1.29-1.23A4,4,0,0,1,187.4,50a3.35,3.35,0,0,1,2.51.86,3.86,3.86,0,0,1,.84,2.76v6.47Zm17.24,0V53.61a2.63,2.63,0,0,0-.51-1.77,1.94,1.94,0,0,0-1.57-.6,2.51,2.51,0,0,0-2.07.81,3.78,3.78,0,0,0-.67,2.47v5.54h-1.5V53.61a2.63,2.63,0,0,0-.51-1.77,2,2,0,0,0-1.58-.6,2.48,2.48,0,0,0-2.07.85,4.53,4.53,0,0,0-.66,2.77v5.2h-1.5V50.15h1.22l.25,1.35h.07a2.91,2.91,0,0,1,1.2-1.13,3.65,3.65,0,0,1,1.73-.4,3,3,0,0,1,3,1.68h.07a3.19,3.19,0,0,1,1.29-1.23,4,4,0,0,1,1.91-.45,3.39,3.39,0,0,1,2.52.86,3.86,3.86,0,0,1,.84,2.76v6.47Zm6-9.91v6.43a2.58,2.58,0,0,0,.55,1.81,2.29,2.29,0,0,0,1.73.59,2.79,2.79,0,0,0,2.27-.85,4.26,4.26,0,0,0,.72-2.77V50.15h1.5v9.91H218l-.22-1.33h-.08a3,3,0,0,1-1.29,1.12,4.24,4.24,0,0,1-1.86.39,3.8,3.8,0,0,1-2.71-.86,3.65,3.65,0,0,1-.9-2.75V50.15Zm16.75,9.91V53.65a2.63,2.63,0,0,0-.55-1.81,2.26,2.26,0,0,0-1.73-.6,2.85,2.85,0,0,0-2.28.84,4.27,4.27,0,0,0-.72,2.78v5.2h-1.5V50.15h1.22l.24,1.35H224a3.13,3.13,0,0,1,1.3-1.13,4.15,4.15,0,0,1,1.85-.4,3.82,3.82,0,0,1,2.7.86,3.7,3.7,0,0,1,.9,2.76v6.47Zm6.09,0h-1.5V50.15h1.5Zm-1.62-12.6a1,1,0,0,1,.25-.75.88.88,0,0,1,.63-.24.92.92,0,0,1,.63.24,1,1,0,0,1,.26.75,1,1,0,0,1-.26.76.93.93,0,0,1-.63.25.89.89,0,0,1-.63-.25A1,1,0,0,1,233.72,47.46Zm8,11.54a6.49,6.49,0,0,0,.77,0l.58-.13V60a2.6,2.6,0,0,1-.72.19,5.49,5.49,0,0,1-.85.08c-1.92,0-2.87-1-2.87-3v-5.9h-1.42v-.72l1.42-.62.63-2.12h.87v2.3H243v1.16h-2.87v5.84a2,2,0,0,0,.42,1.37A1.47,1.47,0,0,0,241.73,59Zm1.77-8.85h1.61l2.17,5.65a22.09,22.09,0,0,1,.89,2.79h.07c.08-.3.24-.83.49-1.57s1.07-3,2.46-6.87h1.61l-4.26,11.28a5.46,5.46,0,0,1-1.49,2.37,3.11,3.11,0,0,1-2.07.71,5.6,5.6,0,0,1-1.35-.16v-1.2a5.35,5.35,0,0,0,1.11.11A2.3,2.3,0,0,0,247,61.52l.55-1.41ZM256,57.91l.14.2c-.16.61-.39,1.31-.68,2.1s-.61,1.55-.92,2.24h-1.13c.16-.63.34-1.41.53-2.33s.34-1.66.41-2.21Zm8,2.15V46.84h1.54V58.67h5.83v1.39Zm17.95-5a5.45,5.45,0,0,1-1.22,3.79,4.27,4.27,0,0,1-3.37,1.36,4.54,4.54,0,0,1-2.36-.62,4.14,4.14,0,0,1-1.59-1.79,6.18,6.18,0,0,1-.56-2.74A5.44,5.44,0,0,1,274,51.32,4.29,4.29,0,0,1,277.4,50a4.17,4.17,0,0,1,3.3,1.38A5.37,5.37,0,0,1,281.93,55.09Zm-7.55,0a4.77,4.77,0,0,0,.76,2.9,3,3,0,0,0,4.47,0,4.72,4.72,0,0,0,.77-2.91,4.56,4.56,0,0,0-.77-2.86,3.05,3.05,0,0,0-4.48,0A4.65,4.65,0,0,0,274.38,55.09Zm14.16,5.15a4.25,4.25,0,0,1-3.34-1.32A5.51,5.51,0,0,1,284,55.17a5.64,5.64,0,0,1,1.2-3.85A4.34,4.34,0,0,1,288.64,50a6.85,6.85,0,0,1,1.42.15,4.7,4.7,0,0,1,1.13.36l-.46,1.28a6.94,6.94,0,0,0-1.09-.33,4.68,4.68,0,0,0-1-.13q-3,0-3,3.85a4.58,4.58,0,0,0,.73,2.8,2.59,2.59,0,0,0,2.19,1,6.6,6.6,0,0,0,2.54-.54v1.33A5.32,5.32,0,0,1,288.54,60.24Zm11-.18-.3-1.41h-.07a4.17,4.17,0,0,1-1.49,1.26,4.47,4.47,0,0,1-1.83.33,3.31,3.31,0,0,1-2.32-.76,2.8,2.8,0,0,1-.83-2.16q0-3,4.8-3.15l1.68-.05V53.5a2.52,2.52,0,0,0-.5-1.72,2.06,2.06,0,0,0-1.6-.56,6.67,6.67,0,0,0-2.81.76l-.46-1.15a7.29,7.29,0,0,1,1.6-.62,7.09,7.09,0,0,1,1.76-.23,3.78,3.78,0,0,1,2.62.79,3.3,3.3,0,0,1,.86,2.52v6.77ZM296.11,59a3,3,0,0,0,2.19-.77,2.82,2.82,0,0,0,.81-2.15v-.9l-1.5.07a5.44,5.44,0,0,0-2.59.56,1.67,1.67,0,0,0-.79,1.53,1.59,1.59,0,0,0,.49,1.24A2.08,2.08,0,0,0,296.11,59Zm9.1,1.06h-1.5V46h1.5Zm16.53,0-1.64-4.21h-5.3l-1.63,4.21h-1.56l5.23-13.28h1.29l5.21,13.28Zm-2.12-5.59-1.54-4.1c-.2-.51-.4-1.15-.61-1.9-.14.57-.33,1.21-.57,1.9l-1.56,4.1Zm6.81,5.59h-1.5V50.15h1.5Zm-1.63-12.6a1,1,0,0,1,.25-.75.89.89,0,0,1,.64-.24.88.88,0,0,1,.62.24,1,1,0,0,1,.26.75,1,1,0,0,1-.26.76.89.89,0,0,1-.62.25.9.9,0,0,1-.64-.25A1,1,0,0,1,324.8,47.46Zm11.56,11.27h-.08a3.54,3.54,0,0,1-3.12,1.51,3.7,3.7,0,0,1-3-1.33,5.93,5.93,0,0,1-1.07-3.78,6,6,0,0,1,1.08-3.81,3.67,3.67,0,0,1,3-1.35,3.63,3.63,0,0,1,3.1,1.46h.11l-.06-.71,0-.7V46h1.5V60.06h-1.22Zm-3,.25a2.72,2.72,0,0,0,2.23-.83,4.24,4.24,0,0,0,.7-2.7v-.32a4.91,4.91,0,0,0-.71-3,2.65,2.65,0,0,0-2.23-.91,2.33,2.33,0,0,0-2,1,5.18,5.18,0,0,0-.7,2.9,5,5,0,0,0,.7,2.87A2.36,2.36,0,0,0,333.35,59Zm7.4.12a1.34,1.34,0,0,1,.27-.91,1,1,0,0,1,.8-.32,1,1,0,0,1,.81.32,1.52,1.52,0,0,1,0,1.81,1,1,0,0,1-.81.32,1.07,1.07,0,0,1-.77-.28A1.26,1.26,0,0,1,340.75,59.1Z" fill="#150e60"/>
    <path d="M110.41,34.52V20.92c0-.32,0-.62,0-.93s0-1.62.15-4q-1.12,4.29-1.67,6l-4,12.53h-3.34L97.5,22l-1.69-6c.12,2.46.18,4.1.18,4.9v13.6H91.84V12.07h6.27l4,12.56.35,1.21.76,3,1-3.6,4.11-13.18h6.23V34.52Z" fill="#150e60"/>
    <path d="M122.64,17.28V27c0,3,1,4.54,3,4.54a3.07,3.07,0,0,0,2.62-1.4,6.06,6.06,0,0,0,1-3.58V17.27h4.46V30.65c0,1.46,0,2.75.12,3.86h-4.25c-.13-1.52-.19-2.67-.19-3.42h-.07a6.43,6.43,0,0,1-2.27,2.85,5.89,5.89,0,0,1-3.26.88,5.3,5.3,0,0,1-4.2-1.68,7.37,7.37,0,0,1-1.45-4.94V17.28Z" fill="#150e60"/>
    <path d="M142.11,34.81a4.13,4.13,0,0,1-3-1.07,4.5,4.5,0,0,1-1-3.26V20.3h-2.18v-3h2.4l1.39-4.05h2.81v4.05h3.24v3h-3.24v9a3,3,0,0,0,.47,1.86,1.78,1.78,0,0,0,1.48.6,7,7,0,0,0,1.49-.22v2.76A12.11,12.11,0,0,1,142.11,34.81Z" fill="#150e60"/>
    <path d="M152.16,17.28V27c0,3,1,4.54,3.05,4.54a3.06,3.06,0,0,0,2.61-1.4,6.06,6.06,0,0,0,1-3.58V17.27h4.45V30.65c0,1.46,0,2.75.13,3.86h-4.26C159,33,159,31.84,159,31.09h-.07a6.43,6.43,0,0,1-2.27,2.85,5.89,5.89,0,0,1-3.26.88,5.27,5.27,0,0,1-4.19-1.68,7.38,7.38,0,0,1-1.46-4.94V17.28Z" fill="#150e60"/>
    <path d="M171.2,34.83a5.26,5.26,0,0,1-3.88-1.36,5.11,5.11,0,0,1-1.4-3.83,4.93,4.93,0,0,1,1.75-4.08,8,8,0,0,1,5-1.43l3.7-.07v-.87a4.34,4.34,0,0,0-.59-2.51,2.2,2.2,0,0,0-1.92-.83,2.49,2.49,0,0,0-1.81.57,3,3,0,0,0-.73,1.87l-4.65-.23A5.56,5.56,0,0,1,169,18.25a8.81,8.81,0,0,1,5.09-1.3,7.15,7.15,0,0,1,5,1.62,5.9,5.9,0,0,1,1.77,4.57v6.28a4.36,4.36,0,0,0,.32,2,1.14,1.14,0,0,0,1.08.55,4.46,4.46,0,0,0,1-.1V34.3l-.71.17c-.21.05-.42.1-.63.13s-.43.06-.67.07a7,7,0,0,1-.84,0,3.35,3.35,0,0,1-2.49-.82,4,4,0,0,1-.95-2.44h-.1A6.1,6.1,0,0,1,171.2,34.83Zm5.19-8.29-2.29,0a7.08,7.08,0,0,0-2.2.33,2.2,2.2,0,0,0-1,.85,3.07,3.07,0,0,0-.33,1.53,2.54,2.54,0,0,0,.56,1.82,1.94,1.94,0,0,0,1.5.6,3.43,3.43,0,0,0,1.92-.57,4.07,4.07,0,0,0,1.36-1.59,5,5,0,0,0,.5-2.14v-.87Z" fill="#150e60"/>
    <path d="M184.73,34.52V10.87h4.46V34.52Z" fill="#150e60"/>
    <path d="M208.89,34.52l-2-5.73h-8.53l-2,5.73h-4.68l8.16-22.45h5.53l8.13,22.45Zm-6.24-19-.1.35c-.1.39-.24.82-.39,1.31s-1.06,3.17-2.73,8.06h6.44l-2.2-6.46L203,16.61Z" fill="#150e60"/>
    <path d="M216.08,14.17v-3.3h4.45v3.3Zm0,20.35V17.28h4.45V34.52Z" fill="#150e60"/>
    <path d="M235.66,34.52a11.21,11.21,0,0,1-.15-1.2c-.06-.63-.09-1.17-.09-1.6h-.06c-1,2.09-2.8,3.13-5.49,3.13a5.31,5.31,0,0,1-4.63-2.35,11.3,11.3,0,0,1-1.63-6.57,11,11,0,0,1,1.72-6.63A5.68,5.68,0,0,1,230.21,17a6.14,6.14,0,0,1,3.14.76A5,5,0,0,1,235.4,20h0l0-2.83v-6.3h4.45V30.76c0,1.06,0,2.31.13,3.76Zm-.21-8.72a8.26,8.26,0,0,0-.94-4.3A3,3,0,0,0,231.77,20a2.91,2.91,0,0,0-2.66,1.46,9,9,0,0,0-.87,4.46c0,3.92,1.17,5.86,3.51,5.86a3,3,0,0,0,2.72-1.55A8.32,8.32,0,0,0,235.45,25.8Z" fill="#150e60"/>
    <path d="M243.74,34.52V29.66h4.59v4.86Z" fill="#150e60"/>
    <path d="M274.86,34.52H269.3l-3-13c-.38-1.53-.69-3.13-.94-4.8-.25,1.39-.46,2.45-.62,3.17s-1.28,5.6-3.39,14.61h-5.55L250,12.06h4.74L258,26.56l.73,3.51q.45-2.2.87-4.23t3.17-13.78H268l2.82,12c.23.89.6,2.92,1.14,6.06l.39-1.84.85-3.67,2.7-12.49h4.74Z" fill="#150e60"/>
    <path d="M298.1,25.89a9,9,0,0,1-2.32,6.57,8.52,8.52,0,0,1-6.41,2.39,8.3,8.3,0,0,1-6.3-2.39,9.13,9.13,0,0,1-2.29-6.56,9.08,9.08,0,0,1,2.29-6.55,8.48,8.48,0,0,1,6.4-2.38c2.8,0,4.94.76,6.42,2.3S298.1,23,298.1,25.89Zm-4.67,0a7.8,7.8,0,0,0-1-4.46,3.34,3.34,0,0,0-2.9-1.39q-4.06,0-4.06,5.85a8,8,0,0,0,1,4.39,3.23,3.23,0,0,0,2.86,1.51C292.05,31.78,293.43,29.81,293.43,25.89Z" fill="#150e60"/>
    <path d="M301.05,34.52V21.33c0-.95,0-1.74,0-2.36s-.05-1.2-.09-1.69h4.26c0,.19.07.77.12,1.75s.08,1.61.08,1.94h.06a12.52,12.52,0,0,1,1.16-2.57,3.16,3.16,0,0,1,1.21-1.1,3.87,3.87,0,0,1,1.74-.36,3.35,3.35,0,0,1,1.38.24v3.75a9,9,0,0,0-1.9-.24A3,3,0,0,0,306.42,22a7.09,7.09,0,0,0-.93,4v8.46h-4.44Z" fill="#150e60"/>
    <path d="M313.11,34.52V10.87h4.45V34.52Z" fill="#150e60"/>
    <path d="M332.69,34.52a11.21,11.21,0,0,1-.15-1.2c-.06-.63-.09-1.17-.09-1.6h-.06c-1,2.09-2.8,3.13-5.49,3.13a5.31,5.31,0,0,1-4.63-2.35,11.3,11.3,0,0,1-1.63-6.57,11,11,0,0,1,1.72-6.63A5.68,5.68,0,0,1,327.24,17a6.2,6.2,0,0,1,3.15.76,5.08,5.08,0,0,1,2,2.27h0l0-2.83v-6.3h4.45V30.76c0,1.06,0,2.31.13,3.76Zm-.2-8.72a8.27,8.27,0,0,0-.93-4.3A3.05,3.05,0,0,0,328.82,20a2.9,2.9,0,0,0-2.67,1.46,9,9,0,0,0-.87,4.46c0,3.92,1.17,5.86,3.51,5.86a3,3,0,0,0,2.73-1.55A8.33,8.33,0,0,0,332.49,25.8Z" fill="#150e60"/>
  </g>
  <g>
    <path d="M18.62,60.81c-9.8,0-17.74-11-17.74-24.5S8.82,11.83,18.62,11.83c3.66,0,13.91,4.19,17.76,4.19,15.46,0-3.09,9.77-3.09,20.29s17.94,18.86,4.47,18.86C33.1,55.17,22.92,60.81,18.62,60.81Z" fill="url(#linear-gradient)"/>
    <path d="M69.88,60.81c0-13.74-4.21-23.32-17.93-23.32-15.8,0-21.15,23.32-35.19,23.32Z" fill="#150e60"/>
    <path d="M69.88,11.83c0,13.74-4.21,23.32-17.93,23.32-15.8,0-21.15-23.32-35.19-23.32Z" fill="#150e60"/>
  </g>
</svg>
