<?xml version="1.0" encoding="utf-8"?>
<!-- Generator: Adobe Illustrator 23.1.1, SVG Export Plug-In . SVG Version: 6.00 Build 0)  -->
<svg version="1.1" id="Layer_1" xmlns="http://www.w3.org/2000/svg" xmlns:xlink="http://www.w3.org/1999/xlink" x="0px" y="0px"
	 viewBox="0 0 347 72" style="enable-background:new 0 0 347 72;" xml:space="preserve">
<style type="text/css">
	.st0{fill:#B2B1DD;}
	.st1{fill:#150E60;}
	.st2{fill:url(#SVGID_1_);}
</style>
<rect y="-0.3" class="st0" width="347" height="72.5"/>
<g>
	<path class="st1" d="M99.2,53.1h4.5v6.4c-0.7,0.2-1.4,0.4-2.1,0.5c-0.7,0.1-1.6,0.2-2.5,0.2c-2,0-3.6-0.6-4.7-1.8
		c-1.1-1.2-1.7-2.9-1.7-5c0-1.4,0.3-2.6,0.8-3.6c0.6-1,1.3-1.8,2.4-2.4c1-0.5,2.3-0.8,3.6-0.8c1.4,0,2.7,0.3,3.9,0.8l-0.6,1.4
		c-1.2-0.5-2.3-0.8-3.4-0.8c-1.6,0-2.9,0.5-3.8,1.4c-0.9,1-1.4,2.3-1.4,4c0,1.8,0.4,3.1,1.3,4.1c0.9,0.9,2.2,1.4,3.8,1.4
		c0.9,0,1.8-0.1,2.7-0.3v-4.1h-3V53.1z M108.2,60.1h-1.5V46h1.5V60.1z M119.9,55.1c0,1.6-0.4,2.9-1.2,3.8c-0.8,0.9-1.9,1.4-3.4,1.4
		c-0.9,0-1.7-0.2-2.4-0.6c-0.7-0.4-1.2-1-1.6-1.8c-0.4-0.8-0.6-1.7-0.6-2.7c0-1.6,0.4-2.9,1.2-3.8c0.8-0.9,1.9-1.4,3.4-1.4
		c1.4,0,2.5,0.5,3.3,1.4C119.5,52.3,119.9,53.5,119.9,55.1z M112.4,55.1c0,1.3,0.3,2.2,0.8,2.9c0.5,0.7,1.3,1,2.2,1
		c1,0,1.7-0.3,2.2-1c0.5-0.7,0.8-1.6,0.8-2.9c0-1.3-0.3-2.2-0.8-2.9c-0.5-0.7-1.3-1-2.3-1c-1,0-1.7,0.3-2.2,1
		C112.6,52.9,112.4,53.8,112.4,55.1z M127.2,50c1.3,0,2.3,0.4,3,1.3c0.7,0.9,1.1,2.1,1.1,3.8c0,1.6-0.4,2.9-1.1,3.8
		c-0.7,0.9-1.7,1.3-3,1.3c-0.6,0-1.2-0.1-1.8-0.4c-0.5-0.2-1-0.6-1.3-1.1H124l-0.3,1.3h-1.1V46h1.5v3.4c0,0.8,0,1.5-0.1,2.1h0.1
		C124.8,50.5,125.8,50,127.2,50z M127,51.2c-1,0-1.8,0.3-2.2,0.9c-0.5,0.6-0.7,1.6-0.7,3c0,1.4,0.2,2.4,0.7,3
		c0.5,0.6,1.2,0.9,2.2,0.9c0.9,0,1.6-0.3,2.1-1c0.5-0.7,0.7-1.6,0.7-2.9c0-1.3-0.2-2.3-0.7-2.9C128.6,51.6,127.9,51.2,127,51.2z
		 M140,60.1l-0.3-1.4h-0.1c-0.5,0.6-1,1-1.5,1.3c-0.5,0.2-1.1,0.3-1.8,0.3c-1,0-1.8-0.3-2.3-0.8c-0.6-0.5-0.8-1.2-0.8-2.2
		c0-2,1.6-3.1,4.8-3.1l1.7-0.1v-0.6c0-0.8-0.2-1.4-0.5-1.7c-0.3-0.4-0.9-0.6-1.6-0.6c-0.8,0-1.8,0.3-2.8,0.8l-0.5-1.1
		c0.5-0.3,1-0.5,1.6-0.6c0.6-0.2,1.2-0.2,1.8-0.2c1.2,0,2.1,0.3,2.6,0.8c0.6,0.5,0.9,1.4,0.9,2.5v6.8H140z M136.6,59
		c0.9,0,1.7-0.3,2.2-0.8c0.5-0.5,0.8-1.2,0.8-2.2v-0.9l-1.5,0.1c-1.2,0-2.1,0.2-2.6,0.6c-0.5,0.3-0.8,0.8-0.8,1.5
		c0,0.5,0.2,1,0.5,1.2C135.6,58.9,136,59,136.6,59z M145.7,60.1h-1.5V46h1.5V60.1z M159.6,48c-1.5,0-2.6,0.5-3.4,1.5
		c-0.8,1-1.3,2.3-1.3,4c0,1.7,0.4,3.1,1.2,4c0.8,0.9,2,1.4,3.5,1.4c0.9,0,2-0.2,3.2-0.5v1.3c-0.9,0.3-2,0.5-3.4,0.5
		c-1.9,0-3.5-0.6-4.5-1.8c-1.1-1.2-1.6-2.9-1.6-5c0-1.4,0.3-2.6,0.8-3.6c0.5-1,1.2-1.8,2.2-2.4c1-0.6,2.1-0.8,3.4-0.8
		c1.4,0,2.6,0.3,3.6,0.8l-0.7,1.3C161.6,48.3,160.6,48,159.6,48z M174,55.1c0,1.6-0.4,2.9-1.2,3.8c-0.8,0.9-1.9,1.4-3.4,1.4
		c-0.9,0-1.7-0.2-2.4-0.6c-0.7-0.4-1.2-1-1.6-1.8c-0.4-0.8-0.6-1.7-0.6-2.7c0-1.6,0.4-2.9,1.2-3.8c0.8-0.9,1.9-1.4,3.4-1.4
		c1.4,0,2.5,0.5,3.3,1.4C173.6,52.3,174,53.5,174,55.1z M166.4,55.1c0,1.3,0.3,2.2,0.8,2.9c0.5,0.7,1.3,1,2.2,1s1.7-0.3,2.2-1
		c0.5-0.7,0.8-1.6,0.8-2.9c0-1.3-0.3-2.2-0.8-2.9c-0.5-0.7-1.3-1-2.3-1c-1,0-1.7,0.3-2.2,1C166.7,52.9,166.4,53.8,166.4,55.1z
		 M189.3,60.1v-6.4c0-0.8-0.2-1.4-0.5-1.8c-0.3-0.4-0.9-0.6-1.6-0.6c-0.9,0-1.6,0.3-2.1,0.8c-0.4,0.5-0.7,1.4-0.7,2.5v5.5h-1.5v-6.4
		c0-0.8-0.2-1.4-0.5-1.8c-0.3-0.4-0.9-0.6-1.6-0.6c-0.9,0-1.6,0.3-2.1,0.9c-0.4,0.6-0.7,1.5-0.7,2.8v5.2h-1.5v-9.9h1.2l0.2,1.4h0.1
		c0.3-0.5,0.7-0.9,1.2-1.1c0.5-0.3,1.1-0.4,1.7-0.4c1.5,0,2.6,0.6,3,1.7h0.1c0.3-0.5,0.7-0.9,1.3-1.2c0.6-0.3,1.2-0.5,1.9-0.5
		c1.1,0,2,0.3,2.5,0.9c0.6,0.6,0.8,1.5,0.8,2.8v6.5H189.3z M206.5,60.1v-6.4c0-0.8-0.2-1.4-0.5-1.8c-0.3-0.4-0.9-0.6-1.6-0.6
		c-0.9,0-1.6,0.3-2.1,0.8c-0.4,0.5-0.7,1.4-0.7,2.5v5.5h-1.5v-6.4c0-0.8-0.2-1.4-0.5-1.8c-0.3-0.4-0.9-0.6-1.6-0.6
		c-0.9,0-1.6,0.3-2.1,0.9c-0.4,0.6-0.7,1.5-0.7,2.8v5.2h-1.5v-9.9h1.2l0.2,1.4h0.1c0.3-0.5,0.7-0.9,1.2-1.1c0.5-0.3,1.1-0.4,1.7-0.4
		c1.5,0,2.6,0.6,3,1.7h0.1c0.3-0.5,0.7-0.9,1.3-1.2c0.6-0.3,1.2-0.5,1.9-0.5c1.1,0,2,0.3,2.5,0.9c0.6,0.6,0.8,1.5,0.8,2.8v6.5H206.5
		z M212.5,50.1v6.4c0,0.8,0.2,1.4,0.6,1.8c0.4,0.4,0.9,0.6,1.7,0.6c1,0,1.8-0.3,2.3-0.8c0.5-0.6,0.7-1.5,0.7-2.8v-5.2h1.5v9.9H218
		l-0.2-1.3h-0.1c-0.3,0.5-0.7,0.9-1.3,1.1c-0.5,0.3-1.2,0.4-1.9,0.4c-1.2,0-2.1-0.3-2.7-0.9c-0.6-0.6-0.9-1.5-0.9-2.7v-6.5H212.5z
		 M229.2,60.1v-6.4c0-0.8-0.2-1.4-0.6-1.8c-0.4-0.4-0.9-0.6-1.7-0.6c-1,0-1.8,0.3-2.3,0.8c-0.5,0.6-0.7,1.5-0.7,2.8v5.2h-1.5v-9.9
		h1.2l0.2,1.4h0.1c0.3-0.5,0.7-0.9,1.3-1.1c0.6-0.3,1.2-0.4,1.9-0.4c1.2,0,2.1,0.3,2.7,0.9c0.6,0.6,0.9,1.5,0.9,2.8v6.5H229.2z
		 M235.3,60.1h-1.5v-9.9h1.5V60.1z M233.7,47.5c0-0.3,0.1-0.6,0.3-0.8c0.2-0.2,0.4-0.2,0.6-0.2c0.2,0,0.4,0.1,0.6,0.2
		c0.2,0.2,0.3,0.4,0.3,0.8s-0.1,0.6-0.3,0.8c-0.2,0.2-0.4,0.2-0.6,0.2c-0.3,0-0.5-0.1-0.6-0.2C233.8,48.1,233.7,47.8,233.7,47.5z
		 M241.7,59c0.3,0,0.5,0,0.8-0.1c0.2,0,0.4-0.1,0.6-0.1V60c-0.2,0.1-0.4,0.1-0.7,0.2c-0.3,0.1-0.6,0.1-0.8,0.1c-1.9,0-2.9-1-2.9-3
		v-5.9h-1.4v-0.7l1.4-0.6l0.6-2.1h0.9v2.3h2.9v1.2h-2.9v5.8c0,0.6,0.1,1.1,0.4,1.4C240.8,58.8,241.2,59,241.7,59z M243.5,50.1h1.6
		l2.2,5.7c0.5,1.3,0.8,2.2,0.9,2.8h0.1c0.1-0.3,0.2-0.8,0.5-1.6c0.3-0.7,1.1-3,2.5-6.9h1.6l-4.3,11.3c-0.4,1.1-0.9,1.9-1.5,2.4
		c-0.6,0.5-1.3,0.7-2.1,0.7c-0.5,0-0.9-0.1-1.4-0.2v-1.2c0.3,0.1,0.7,0.1,1.1,0.1c1,0,1.8-0.6,2.2-1.7l0.6-1.4L243.5,50.1z
		 M256,57.9l0.1,0.2c-0.2,0.6-0.4,1.3-0.7,2.1c-0.3,0.8-0.6,1.5-0.9,2.2h-1.1c0.2-0.6,0.3-1.4,0.5-2.3c0.2-0.9,0.3-1.7,0.4-2.2H256z
		 M264,60.1V46.8h1.5v11.8h5.8v1.4H264z M281.9,55.1c0,1.6-0.4,2.9-1.2,3.8c-0.8,0.9-1.9,1.4-3.4,1.4c-0.9,0-1.7-0.2-2.4-0.6
		c-0.7-0.4-1.2-1-1.6-1.8c-0.4-0.8-0.6-1.7-0.6-2.7c0-1.6,0.4-2.9,1.2-3.8c0.8-0.9,1.9-1.4,3.4-1.4c1.4,0,2.5,0.5,3.3,1.4
		C281.5,52.3,281.9,53.5,281.9,55.1z M274.4,55.1c0,1.3,0.3,2.2,0.8,2.9c0.5,0.7,1.3,1,2.2,1c1,0,1.7-0.3,2.2-1
		c0.5-0.7,0.8-1.6,0.8-2.9c0-1.3-0.3-2.2-0.8-2.9c-0.5-0.7-1.3-1-2.3-1c-1,0-1.7,0.3-2.2,1S274.4,53.8,274.4,55.1z M288.5,60.2
		c-1.4,0-2.5-0.4-3.3-1.3c-0.8-0.9-1.2-2.1-1.2-3.8c0-1.7,0.4-2.9,1.2-3.8c0.8-0.9,1.9-1.4,3.4-1.4c0.5,0,1,0.1,1.4,0.2
		c0.5,0.1,0.9,0.2,1.1,0.4l-0.5,1.3c-0.3-0.1-0.7-0.2-1.1-0.3c-0.4-0.1-0.7-0.1-1-0.1c-2,0-3,1.3-3,3.9c0,1.2,0.2,2.2,0.7,2.8
		c0.5,0.7,1.2,1,2.2,1c0.8,0,1.7-0.2,2.5-0.5v1.3C290.4,60.1,289.5,60.2,288.5,60.2z M299.5,60.1l-0.3-1.4h-0.1
		c-0.5,0.6-1,1-1.5,1.3c-0.5,0.2-1.1,0.3-1.8,0.3c-1,0-1.8-0.3-2.3-0.8c-0.6-0.5-0.8-1.2-0.8-2.2c0-2,1.6-3.1,4.8-3.1l1.7-0.1v-0.6
		c0-0.8-0.2-1.4-0.5-1.7c-0.3-0.4-0.9-0.6-1.6-0.6c-0.8,0-1.8,0.3-2.8,0.8l-0.5-1.1c0.5-0.3,1-0.5,1.6-0.6c0.6-0.2,1.2-0.2,1.8-0.2
		c1.2,0,2.1,0.3,2.6,0.8c0.6,0.5,0.9,1.4,0.9,2.5v6.8H299.5z M296.1,59c0.9,0,1.7-0.3,2.2-0.8c0.5-0.5,0.8-1.2,0.8-2.2v-0.9
		l-1.5,0.1c-1.2,0-2.1,0.2-2.6,0.6c-0.5,0.3-0.8,0.8-0.8,1.5c0,0.5,0.2,1,0.5,1.2C295.1,58.9,295.5,59,296.1,59z M305.2,60.1h-1.5
		V46h1.5V60.1z M321.7,60.1l-1.6-4.2h-5.3l-1.6,4.2h-1.6l5.2-13.3h1.3l5.2,13.3H321.7z M319.6,54.5l-1.5-4.1
		c-0.2-0.5-0.4-1.2-0.6-1.9c-0.1,0.6-0.3,1.2-0.6,1.9l-1.6,4.1H319.6z M326.4,60.1h-1.5v-9.9h1.5V60.1z M324.8,47.5
		c0-0.3,0.1-0.6,0.3-0.8c0.2-0.2,0.4-0.2,0.6-0.2c0.2,0,0.4,0.1,0.6,0.2c0.2,0.2,0.3,0.4,0.3,0.8s-0.1,0.6-0.3,0.8
		c-0.2,0.2-0.4,0.2-0.6,0.2c-0.3,0-0.5-0.1-0.6-0.2C324.9,48.1,324.8,47.8,324.8,47.5z M336.4,58.7L336.4,58.7
		c-0.8,1-1.8,1.5-3.2,1.5c-1.3,0-2.3-0.4-3-1.3c-0.7-0.9-1.1-2.1-1.1-3.8c0-1.6,0.4-2.9,1.1-3.8c0.7-0.9,1.7-1.4,3-1.4
		c1.3,0,2.4,0.5,3.1,1.5h0.1l-0.1-0.7l0-0.7v-4h1.5v14.1h-1.2L336.4,58.7z M333.4,59c1,0,1.8-0.3,2.2-0.8c0.5-0.6,0.7-1.5,0.7-2.7
		v-0.3c0-1.4-0.2-2.4-0.7-3c-0.5-0.6-1.2-0.9-2.2-0.9c-0.9,0-1.6,0.3-2,1c-0.5,0.7-0.7,1.6-0.7,2.9c0,1.3,0.2,2.2,0.7,2.9
		C331.8,58.7,332.5,59,333.4,59z M340.8,59.1c0-0.4,0.1-0.7,0.3-0.9c0.2-0.2,0.5-0.3,0.8-0.3c0.3,0,0.6,0.1,0.8,0.3
		c0.2,0.2,0.3,0.5,0.3,0.9c0,0.4-0.1,0.7-0.3,0.9c-0.2,0.2-0.5,0.3-0.8,0.3c-0.3,0-0.6-0.1-0.8-0.3
		C340.9,59.8,340.8,59.5,340.8,59.1z"/>
	<path class="st1" d="M110.4,34.5V20.9c0-0.3,0-0.6,0-0.9c0-0.3,0-1.6,0.1-4c-0.7,2.9-1.3,4.8-1.7,6l-4,12.5h-3.3l-4-12.5l-1.7-6
		c0.1,2.5,0.2,4.1,0.2,4.9v13.6h-4.2V12.1h6.3l4,12.6l0.3,1.2l0.8,3l1-3.6l4.1-13.2h6.2v22.5H110.4z"/>
	<path class="st1" d="M122.6,17.3V27c0,3,1,4.5,3,4.5c1.1,0,2-0.5,2.6-1.4c0.7-0.9,1-2.1,1-3.6v-9.2h4.5v13.4c0,1.5,0,2.7,0.1,3.9
		h-4.3c-0.1-1.5-0.2-2.7-0.2-3.4h-0.1c-0.6,1.3-1.3,2.3-2.3,2.8c-0.9,0.6-2,0.9-3.3,0.9c-1.8,0-3.2-0.6-4.2-1.7
		c-1-1.1-1.5-2.8-1.5-4.9V17.3H122.6z"/>
	<path class="st1" d="M142.1,34.8c-1.3,0-2.3-0.4-3-1.1c-0.7-0.7-1.1-1.8-1.1-3.3V20.3h-2.2v-3h2.4l1.4-4h2.8v4h3.2v3h-3.2v9
		c0,0.8,0.2,1.5,0.5,1.9c0.3,0.4,0.8,0.6,1.5,0.6c0.3,0,0.8-0.1,1.5-0.2v2.8C144.8,34.6,143.5,34.8,142.1,34.8z"/>
	<path class="st1" d="M152.2,17.3V27c0,3,1,4.5,3.1,4.5c1.1,0,2-0.5,2.6-1.4c0.7-0.9,1-2.1,1-3.6v-9.2h4.5v13.4c0,1.5,0,2.7,0.1,3.9
		h-4.3c-0.1-1.5-0.2-2.7-0.2-3.4h-0.1c-0.6,1.3-1.3,2.3-2.3,2.8c-0.9,0.6-2,0.9-3.3,0.9c-1.8,0-3.2-0.6-4.2-1.7
		c-1-1.1-1.5-2.8-1.5-4.9V17.3H152.2z"/>
	<path class="st1" d="M171.2,34.8c-1.7,0-3-0.4-3.9-1.4c-0.9-0.9-1.4-2.2-1.4-3.8c0-1.8,0.6-3.1,1.7-4.1c1.2-0.9,2.8-1.4,5-1.4
		l3.7-0.1v-0.9c0-1.1-0.2-2-0.6-2.5c-0.4-0.5-1-0.8-1.9-0.8c-0.8,0-1.4,0.2-1.8,0.6c-0.4,0.4-0.6,1-0.7,1.9l-4.7-0.2
		c0.3-1.7,1-2.9,2.3-3.8c1.2-0.9,2.9-1.3,5.1-1.3c2.2,0,3.8,0.5,5,1.6c1.2,1.1,1.8,2.6,1.8,4.6v6.3c0,1,0.1,1.6,0.3,2
		c0.2,0.4,0.6,0.5,1.1,0.5c0.3,0,0.7,0,1-0.1v2.4c-0.3,0.1-0.5,0.1-0.7,0.2c-0.2,0-0.4,0.1-0.6,0.1s-0.4,0.1-0.7,0.1
		c-0.2,0-0.5,0-0.8,0c-1.1,0-2-0.3-2.5-0.8c-0.5-0.5-0.9-1.4-1-2.4h-0.1C175.6,33.7,173.7,34.8,171.2,34.8z M176.4,26.5l-2.3,0
		c-1,0-1.8,0.2-2.2,0.3c-0.4,0.2-0.8,0.5-1,0.8c-0.2,0.4-0.3,0.9-0.3,1.5c0,0.8,0.2,1.4,0.6,1.8c0.4,0.4,0.9,0.6,1.5,0.6
		c0.7,0,1.3-0.2,1.9-0.6c0.6-0.4,1-0.9,1.4-1.6c0.3-0.7,0.5-1.4,0.5-2.1L176.4,26.5L176.4,26.5z"/>
	<path class="st1" d="M184.7,34.5V10.9h4.5v23.7H184.7z"/>
	<path class="st1" d="M208.9,34.5l-2-5.7h-8.5l-2,5.7h-4.7l8.2-22.5h5.5l8.1,22.5H208.9z M202.6,15.5l-0.1,0.3
		c-0.1,0.4-0.2,0.8-0.4,1.3c-0.1,0.5-1.1,3.2-2.7,8.1h6.4l-2.2-6.5l-0.7-2.2L202.6,15.5z"/>
	<path class="st1" d="M216.1,14.2v-3.3h4.5v3.3H216.1z M216.1,34.5V17.3h4.5v17.2H216.1z"/>
	<path class="st1" d="M235.7,34.5c0-0.2-0.1-0.6-0.1-1.2s-0.1-1.2-0.1-1.6h-0.1c-1,2.1-2.8,3.1-5.5,3.1c-2,0-3.5-0.8-4.6-2.3
		c-1.1-1.6-1.6-3.8-1.6-6.6c0-2.9,0.6-5.1,1.7-6.6c1.1-1.6,2.8-2.3,4.9-2.3c1.2,0,2.3,0.2,3.1,0.8c0.9,0.5,1.6,1.3,2,2.3h0l0-2.8
		v-6.3h4.5v19.9c0,1.1,0,2.3,0.1,3.8H235.7z M235.4,25.8c0-1.9-0.3-3.3-0.9-4.3c-0.6-1-1.5-1.5-2.7-1.5c-1.2,0-2.1,0.5-2.7,1.5
		c-0.6,1-0.9,2.5-0.9,4.5c0,3.9,1.2,5.9,3.5,5.9c1.2,0,2.1-0.5,2.7-1.5C235.1,29.2,235.4,27.7,235.4,25.8z"/>
	<path class="st1" d="M243.7,34.5v-4.9h4.6v4.9H243.7z"/>
	<path class="st1" d="M274.9,34.5h-5.6l-3-13c-0.4-1.5-0.7-3.1-0.9-4.8c-0.2,1.4-0.5,2.4-0.6,3.2c-0.2,0.7-1.3,5.6-3.4,14.6h-5.6
		L250,12.1h4.7l3.2,14.5l0.7,3.5c0.3-1.5,0.6-2.9,0.9-4.2c0.3-1.3,1.3-5.9,3.2-13.8h5.2l2.8,12c0.2,0.9,0.6,2.9,1.1,6.1l0.4-1.8
		l0.8-3.7l2.7-12.5h4.7L274.9,34.5z"/>
	<path class="st1" d="M298.1,25.9c0,2.8-0.8,5-2.3,6.6c-1.5,1.6-3.7,2.4-6.4,2.4c-2.7,0-4.8-0.8-6.3-2.4c-1.5-1.6-2.3-3.8-2.3-6.6
		s0.8-4.9,2.3-6.5c1.5-1.6,3.7-2.4,6.4-2.4c2.8,0,4.9,0.8,6.4,2.3C297.3,20.8,298.1,23,298.1,25.9z M293.4,25.9c0-2-0.3-3.5-1-4.5
		c-0.7-0.9-1.6-1.4-2.9-1.4c-2.7,0-4.1,1.9-4.1,5.8c0,1.9,0.3,3.4,1,4.4c0.7,1,1.6,1.5,2.9,1.5C292,31.8,293.4,29.8,293.4,25.9z"/>
	<path class="st1" d="M301,34.5V21.3c0-0.9,0-1.7,0-2.4c0-0.6,0-1.2-0.1-1.7h4.3c0,0.2,0.1,0.8,0.1,1.7c0,1,0.1,1.6,0.1,1.9h0.1
		c0.4-1.2,0.8-2.1,1.2-2.6c0.3-0.5,0.7-0.9,1.2-1.1c0.5-0.2,1-0.4,1.7-0.4c0.6,0,1,0.1,1.4,0.2v3.7c-0.7-0.2-1.4-0.2-1.9-0.2
		c-1.1,0-2,0.4-2.6,1.3c-0.6,0.9-0.9,2.2-0.9,4v8.5L301,34.5L301,34.5z"/>
	<path class="st1" d="M313.1,34.5V10.9h4.5v23.7H313.1z"/>
	<path class="st1" d="M332.7,34.5c0-0.2-0.1-0.6-0.2-1.2c-0.1-0.6-0.1-1.2-0.1-1.6h-0.1c-1,2.1-2.8,3.1-5.5,3.1
		c-2,0-3.5-0.8-4.6-2.3c-1.1-1.6-1.6-3.8-1.6-6.6c0-2.9,0.6-5.1,1.7-6.6c1.1-1.6,2.8-2.3,4.9-2.3c1.2,0,2.3,0.2,3.1,0.8
		c0.9,0.5,1.6,1.3,2,2.3h0l0-2.8v-6.3h4.5v19.9c0,1.1,0,2.3,0.1,3.8H332.7z M332.5,25.8c0-1.9-0.3-3.3-0.9-4.3
		c-0.6-1-1.5-1.5-2.7-1.5c-1.2,0-2.1,0.5-2.7,1.5c-0.6,1-0.9,2.5-0.9,4.5c0,3.9,1.2,5.9,3.5,5.9c1.2,0,2.1-0.5,2.7-1.5
		C332.2,29.2,332.5,27.7,332.5,25.8z"/>
</g>
<g>
	
		<linearGradient id="SVGID_1_" gradientUnits="userSpaceOnUse" x1="301.8673" y1="-78.8953" x2="349.6658" y2="-70.4675" gradientTransform="matrix(6.123234e-17 1 1 -6.123234e-17 97.5826 -290.2526)">
		<stop  offset="0" style="stop-color:#D31509"/>
		<stop  offset="0.1" style="stop-color:#D92531"/>
		<stop  offset="0.22" style="stop-color:#DE3254"/>
		<stop  offset="0.33" style="stop-color:#E33D70"/>
		<stop  offset="0.44" style="stop-color:#E64583"/>
		<stop  offset="0.56" style="stop-color:#E7498F"/>
		<stop  offset="0.68" style="stop-color:#E84B93"/>
		<stop  offset="0.72" style="stop-color:#E7498D"/>
		<stop  offset="0.78" style="stop-color:#E5427C"/>
		<stop  offset="0.85" style="stop-color:#E03760"/>
		<stop  offset="0.92" style="stop-color:#DA2839"/>
		<stop  offset="1" style="stop-color:#D31509"/>
	</linearGradient>
	<path class="st2" d="M18.6,60.8c-9.8,0-17.7-11-17.7-24.5s7.9-24.5,17.7-24.5c3.7,0,13.9,4.2,17.8,4.2c15.5,0-3.1,9.8-3.1,20.3
		s17.9,18.9,4.5,18.9C33.1,55.2,22.9,60.8,18.6,60.8z"/>
	<path class="st1" d="M69.9,60.8c0-13.7-4.2-23.3-17.9-23.3c-15.8,0-21.1,23.3-35.2,23.3H69.9z"/>
	<path class="st1" d="M69.9,11.8c0,13.7-4.2,23.3-17.9,23.3c-15.8,0-21.1-23.3-35.2-23.3H69.9z"/>
</g>
</svg>
