<svg xmlns="http://www.w3.org/2000/svg" xmlns:xlink="http://www.w3.org/1999/xlink" viewBox="0 0 324.47 57.81">
  <defs>
    <linearGradient id="linear-gradient" x1="304.14" y1="-327.58" x2="278.41" y2="-375.04" gradientTransform="matrix(1, 0, 0, -1, -247.5, -314)" gradientUnits="userSpaceOnUse">
      <stop offset="0.05" stop-color="#d31509"/>
      <stop offset="0.11" stop-color="#d92531"/>
      <stop offset="0.18" stop-color="#de3254"/>
      <stop offset="0.24" stop-color="#e33d70"/>
      <stop offset="0.31" stop-color="#e64583"/>
      <stop offset="0.38" stop-color="#e7498f"/>
      <stop offset="0.45" stop-color="#e84b93"/>
      <stop offset="0.5" stop-color="#e7498d"/>
      <stop offset="0.57" stop-color="#e4427c"/>
      <stop offset="0.65" stop-color="#e03760"/>
      <stop offset="0.73" stop-color="#da2839"/>
      <stop offset="0.82" stop-color="#d31509"/>
    </linearGradient>
    <linearGradient id="linear-gradient-2" x1="271.04" y1="-358.23" x2="296.78" y2="-310.77" xlink:href="#linear-gradient"/>
  </defs>
  <title>Mutual Aid. Global community, local aid.</title>
  <g>
    <path d="M59.35,56.4c9.68,0,20.34-12.32,20.34-27.5S70.92,1.4,56.53,1.4H27.44S50.5,9.6,50.5,31c0,17.74-28.7,25.4-28.7,25.4Z" fill="url(#linear-gradient)"/>
    <path d="M20.84,1.4C11.16,1.4.5,13.72.5,28.9S9.27,56.4,23.66,56.4H52.75S29.68,48.2,29.68,26.8c0-17.71,28.74-25.4,28.74-25.4Z" fill="url(#linear-gradient-2)"/>
    <path d="M23.21,56.4C14.31,56.4,7.66,50,7.66,40.77c0-8.68,6.12-15.64,14.67-15.64,18.52,0,17.46,31.25,36.09,31.25H23.21Z" fill="#150e60"/>
    <path d="M57,1.4c8.9,0,15.55,6.43,15.55,15.64,0,8.67-6.12,15.63-14.67,15.63C39.34,32.65,40.4,1.4,21.77,1.4Z" fill="#150e60"/>
    <path d="M110.46,40.91h3.88v5.56a11.44,11.44,0,0,1-1.84.43,13.85,13.85,0,0,1-2.17.15,5.25,5.25,0,0,1-4-1.54,6.1,6.1,0,0,1-1.45-4.32,6.47,6.47,0,0,1,.72-3.12,4.74,4.74,0,0,1,2.06-2,6.66,6.66,0,0,1,3.15-.71,8.74,8.74,0,0,1,3.4.67l-.51,1.17a7.76,7.76,0,0,0-3-.65,4.26,4.26,0,0,0-3.26,1.24,4.84,4.84,0,0,0-1.17,3.45,4.91,4.91,0,0,0,1.13,3.5,4.34,4.34,0,0,0,3.32,1.2,10,10,0,0,0,2.32-.27V42.1h-2.56Zm7.74,6h-1.3V34.74h1.3Zm10.14-4.29a4.76,4.76,0,0,1-1.06,3.27,3.71,3.71,0,0,1-2.91,1.17,3.84,3.84,0,0,1-2-.54A3.57,3.57,0,0,1,121,45a5.43,5.43,0,0,1-.48-2.36,4.7,4.7,0,0,1,1-3.26,3.67,3.67,0,0,1,2.9-1.17,3.62,3.62,0,0,1,2.85,1.19A4.71,4.71,0,0,1,128.34,42.61Zm-6.53,0a4,4,0,0,0,.66,2.5,2.61,2.61,0,0,0,3.86,0,4.08,4.08,0,0,0,.66-2.51,4,4,0,0,0-.66-2.48,2.31,2.31,0,0,0-2-.85,2.27,2.27,0,0,0-1.92.84A4,4,0,0,0,121.81,42.61Zm12.79-4.42a3.17,3.17,0,0,1,2.62,1.16,5.06,5.06,0,0,1,.94,3.26,5.1,5.1,0,0,1-.95,3.28,3.14,3.14,0,0,1-2.61,1.16,3.8,3.8,0,0,1-1.53-.3,3,3,0,0,1-1.16-1h-.09l-.27,1.1h-.93V34.74h1.29v2.95c0,.67,0,1.26-.06,1.79h.06A3.08,3.08,0,0,1,134.6,38.19Zm-.19,1.09a2.26,2.26,0,0,0-1.91.77,4.24,4.24,0,0,0-.59,2.56,4.22,4.22,0,0,0,.61,2.58,2.28,2.28,0,0,0,1.93.78,2,2,0,0,0,1.78-.87,4.5,4.5,0,0,0,.58-2.51,4.32,4.32,0,0,0-.58-2.49A2.08,2.08,0,0,0,134.41,39.28ZM145.7,46.9l-.26-1.22h-.06a3.68,3.68,0,0,1-1.29,1.09,3.85,3.85,0,0,1-1.58.28,2.9,2.9,0,0,1-2-.65,2.4,2.4,0,0,1-.72-1.87q0-2.6,4.15-2.72l1.45-.05v-.53a2.1,2.1,0,0,0-.44-1.48,1.75,1.75,0,0,0-1.38-.49,5.63,5.63,0,0,0-2.42.66l-.4-1a6,6,0,0,1,1.38-.54,6.1,6.1,0,0,1,1.52-.2,3.25,3.25,0,0,1,2.26.68,2.82,2.82,0,0,1,.75,2.18V46.9ZM142.77,46a2.61,2.61,0,0,0,1.89-.66,2.42,2.42,0,0,0,.7-1.86v-.77l-1.3.05a4.68,4.68,0,0,0-2.23.49,1.45,1.45,0,0,0-.68,1.32,1.36,1.36,0,0,0,.42,1.07A1.83,1.83,0,0,0,142.77,46Zm7.86.92h-1.29V34.74h1.29Zm12-10.4a3.74,3.74,0,0,0-3,1.26,5,5,0,0,0-1.09,3.43,5.15,5.15,0,0,0,1.05,3.46,3.72,3.72,0,0,0,3,1.22,10.09,10.09,0,0,0,2.73-.43v1.17a8.61,8.61,0,0,1-2.93.44,5,5,0,0,1-3.9-1.53,6.32,6.32,0,0,1-1.37-4.35,6.83,6.83,0,0,1,.66-3.09,4.78,4.78,0,0,1,1.9-2,5.82,5.82,0,0,1,2.94-.72,7,7,0,0,1,3.14.66l-.56,1.14A6,6,0,0,0,162.63,36.5ZM175,42.61A4.76,4.76,0,0,1,174,45.88a3.72,3.72,0,0,1-2.91,1.17,3.84,3.84,0,0,1-2-.54A3.51,3.51,0,0,1,167.64,45a5.43,5.43,0,0,1-.48-2.36,4.74,4.74,0,0,1,1-3.26,3.71,3.71,0,0,1,2.91-1.17A3.62,3.62,0,0,1,174,39.37,4.7,4.7,0,0,1,175,42.61Zm-6.52,0a4,4,0,0,0,.66,2.5,2.28,2.28,0,0,0,1.93.86,2.31,2.31,0,0,0,1.93-.85,4.08,4.08,0,0,0,.66-2.51,4,4,0,0,0-.66-2.48,2.31,2.31,0,0,0-2-.85,2.27,2.27,0,0,0-1.92.84A4,4,0,0,0,168.5,42.61Zm19.72,4.29V41.33a2.27,2.27,0,0,0-.44-1.53,1.66,1.66,0,0,0-1.36-.52,2.18,2.18,0,0,0-1.79.7,3.32,3.32,0,0,0-.57,2.14V46.9h-1.3V41.33a2.27,2.27,0,0,0-.44-1.53,1.68,1.68,0,0,0-1.37-.52,2.13,2.13,0,0,0-1.79.73,4,4,0,0,0-.56,2.39v4.5h-1.29V38.33h1.05l.21,1.18h.06a2.56,2.56,0,0,1,1-1,3.25,3.25,0,0,1,1.5-.35,2.54,2.54,0,0,1,2.63,1.45h.06A2.77,2.77,0,0,1,185,38.57a3.48,3.48,0,0,1,1.66-.39,2.87,2.87,0,0,1,2.17.75,3.32,3.32,0,0,1,.73,2.38V46.9Zm14.89,0V41.33a2.27,2.27,0,0,0-.44-1.53,1.66,1.66,0,0,0-1.36-.52,2.19,2.19,0,0,0-1.79.7,3.32,3.32,0,0,0-.57,2.14V46.9h-1.3V41.33a2.27,2.27,0,0,0-.44-1.53,1.68,1.68,0,0,0-1.37-.52,2.1,2.1,0,0,0-1.78.73,3.94,3.94,0,0,0-.57,2.39v4.5H192.2V38.33h1.05l.21,1.18h.06a2.52,2.52,0,0,1,1-1,3.19,3.19,0,0,1,1.5-.35,2.54,2.54,0,0,1,2.62,1.45h.06a2.77,2.77,0,0,1,1.11-1.06,3.48,3.48,0,0,1,1.66-.39,2.87,2.87,0,0,1,2.17.75,3.32,3.32,0,0,1,.73,2.38V46.9Zm5.2-8.57v5.56a2.21,2.21,0,0,0,.47,1.56,1.93,1.93,0,0,0,1.49.52,2.41,2.41,0,0,0,2-.74,3.67,3.67,0,0,0,.63-2.4v-4.5h1.3V46.9h-1.07l-.19-1.15h-.07a2.69,2.69,0,0,1-1.11,1,3.77,3.77,0,0,1-1.61.33,3.26,3.26,0,0,1-2.34-.74,3.15,3.15,0,0,1-.78-2.37V38.33Zm14.46,8.57V41.36a2.26,2.26,0,0,0-.47-1.56,1.93,1.93,0,0,0-1.49-.52,2.43,2.43,0,0,0-2,.73,3.62,3.62,0,0,0-.63,2.39v4.5h-1.3V38.33H218l.21,1.18h.06a2.61,2.61,0,0,1,1.12-1,3.65,3.65,0,0,1,1.6-.35,3.25,3.25,0,0,1,2.33.75,3.16,3.16,0,0,1,.78,2.38V46.9Zm5.27,0h-1.3V38.33H228ZM226.63,36a.85.85,0,0,1,.22-.64.79.79,0,0,1,1.09,0,.83.83,0,0,1,.22.64.88.88,0,0,1-.22.66.81.81,0,0,1-1.09,0A.92.92,0,0,1,226.63,36Zm6.93,10a4.78,4.78,0,0,0,.66,0l.51-.11v1a2.18,2.18,0,0,1-.63.16,4,4,0,0,1-.73.07q-2.49,0-2.49-2.61v-5.1h-1.22v-.62l1.22-.54.55-1.83h.75v2h2.48v1h-2.48v5a1.71,1.71,0,0,0,.37,1.19A1.29,1.29,0,0,0,233.56,46Zm1.53-7.65h1.39l1.87,4.89a19.21,19.21,0,0,1,.77,2.41h.06c.07-.26.21-.72.42-1.36s.93-2.62,2.13-5.94h1.39l-3.68,9.75a4.82,4.82,0,0,1-1.28,2.05,2.68,2.68,0,0,1-1.79.61,5.06,5.06,0,0,1-1.17-.13v-1a4.61,4.61,0,0,0,1,.09,2,2,0,0,0,1.9-1.5l.48-1.22ZM245.87,45l.11.18c-.13.52-.33,1.12-.58,1.81s-.52,1.34-.8,1.93h-1c.14-.54.29-1.21.46-2s.29-1.43.36-1.91Zm6.91,1.86V35.48h1.33V45.69h5V46.9Zm15.51-4.29a4.71,4.71,0,0,1-1.06,3.27,3.71,3.71,0,0,1-2.91,1.17,3.89,3.89,0,0,1-2-.54A3.55,3.55,0,0,1,260.91,45a5.29,5.29,0,0,1-.49-2.36,4.7,4.7,0,0,1,1.05-3.26,3.71,3.71,0,0,1,2.91-1.17,3.65,3.65,0,0,1,2.85,1.19A4.7,4.7,0,0,1,268.29,42.61Zm-6.52,0a4.05,4.05,0,0,0,.65,2.5,2.61,2.61,0,0,0,3.86,0,4.08,4.08,0,0,0,.67-2.51,4,4,0,0,0-.67-2.48,2.64,2.64,0,0,0-3.87,0A4,4,0,0,0,261.77,42.61ZM274,47.05a3.66,3.66,0,0,1-2.88-1.14,4.7,4.7,0,0,1-1-3.24,4.86,4.86,0,0,1,1-3.32,3.73,3.73,0,0,1,2.95-1.17,5.71,5.71,0,0,1,1.23.13,4.1,4.1,0,0,1,1,.31l-.4,1.11a6,6,0,0,0-.93-.29,4.57,4.57,0,0,0-.9-.11c-1.74,0-2.61,1.11-2.61,3.32a4,4,0,0,0,.63,2.43,2.24,2.24,0,0,0,1.89.84,5.75,5.75,0,0,0,2.2-.46v1.15A4.82,4.82,0,0,1,274,47.05Zm9.47-.15-.26-1.22h-.06a3.65,3.65,0,0,1-1.28,1.09,3.87,3.87,0,0,1-1.59.28,2.92,2.92,0,0,1-2-.65,2.4,2.4,0,0,1-.71-1.87q0-2.6,4.14-2.72l1.46-.05v-.53a2.15,2.15,0,0,0-.44-1.48,1.78,1.78,0,0,0-1.38-.49,5.67,5.67,0,0,0-2.43.66l-.39-1a6.24,6.24,0,0,1,2.89-.74,3.26,3.26,0,0,1,2.27.68,2.86,2.86,0,0,1,.74,2.18V46.9ZM280.53,46a2.63,2.63,0,0,0,1.9-.66,2.46,2.46,0,0,0,.7-1.86v-.77l-1.3.05a4.73,4.73,0,0,0-2.24.49,1.45,1.45,0,0,0-.68,1.32,1.37,1.37,0,0,0,.43,1.07A1.78,1.78,0,0,0,280.53,46Zm7.87.92h-1.3V34.74h1.3Zm14.28,0-1.42-3.64h-4.58l-1.41,3.64h-1.34l4.52-11.47h1.11l4.5,11.47Zm-1.84-4.83-1.32-3.54c-.18-.45-.35-1-.54-1.65a12.8,12.8,0,0,1-.49,1.65l-1.34,3.54Zm5.89,4.83h-1.3V38.33h1.3ZM305.32,36a.81.81,0,0,1,.22-.64.78.78,0,0,1,.55-.22.81.81,0,0,1,.54.22.83.83,0,0,1,.22.64.88.88,0,0,1-.22.66.8.8,0,0,1-.54.21.77.77,0,0,1-.55-.21A.88.88,0,0,1,305.32,36Zm10,9.74h-.08a3,3,0,0,1-2.68,1.3,3.19,3.19,0,0,1-2.62-1.15,5,5,0,0,1-.93-3.26,5.11,5.11,0,0,1,.94-3.29,3.48,3.48,0,0,1,5.28.09h.1l-.05-.61,0-.6V34.74h1.3V46.9h-1Zm-2.6.22a2.34,2.34,0,0,0,1.92-.72,3.67,3.67,0,0,0,.6-2.34v-.27a4.29,4.29,0,0,0-.6-2.59,2.28,2.28,0,0,0-1.93-.79,2,2,0,0,0-1.75.89,4.36,4.36,0,0,0-.61,2.5,4.16,4.16,0,0,0,.61,2.48A2,2,0,0,0,312.71,46Zm6.39.1a1.15,1.15,0,0,1,.24-.79A.87.87,0,0,1,320,45a.92.92,0,0,1,.71.27,1.36,1.36,0,0,1,0,1.57.93.93,0,0,1-.71.27,1,1,0,0,1-.66-.24A1.11,1.11,0,0,1,319.1,46.07Z" fill="#150e60"/>
    <path d="M120.11,24.84V13.08c0-.27,0-.53,0-.8s0-1.4.13-3.43q-1,3.71-1.45,5.16l-3.48,10.83h-2.88L109,14l-1.46-5.16c.11,2.13.16,3.54.16,4.23V24.84h-3.59V5.44h5.42l3.45,10.85.3,1.05.66,2.6.86-3.11L118.3,5.44h5.39v19.4Z" fill="#150e60"/>
    <path d="M130.68,9.94v8.35c0,2.62.88,3.92,2.63,3.92A2.63,2.63,0,0,0,135.57,21a5.17,5.17,0,0,0,.86-3.08v-8h3.85V21.49c0,1.26,0,2.37.11,3.34h-3.68c-.11-1.32-.16-2.31-.16-3h-.07a5.52,5.52,0,0,1-1.95,2.46,5,5,0,0,1-2.82.77,4.54,4.54,0,0,1-3.62-1.46,6.35,6.35,0,0,1-1.26-4.27V9.94Z" fill="#150e60"/>
    <path d="M147.5,25.09a3.59,3.59,0,0,1-2.63-.93,3.87,3.87,0,0,1-.91-2.82V12.55h-1.88V9.94h2.07l1.21-3.5h2.42v3.5h2.8v2.61h-2.8v7.74a2.66,2.66,0,0,0,.4,1.61,1.53,1.53,0,0,0,1.28.52,6.17,6.17,0,0,0,1.29-.2v2.39A10.48,10.48,0,0,1,147.5,25.09Z" fill="#150e60"/>
    <path d="M156.17,9.94v8.35c0,2.62.89,3.92,2.64,3.92A2.64,2.64,0,0,0,161.07,21a5.17,5.17,0,0,0,.86-3.08v-8h3.85V21.49c0,1.26,0,2.37.11,3.34h-3.68c-.11-1.32-.16-2.31-.16-3H162a5.47,5.47,0,0,1-2,2.46,5,5,0,0,1-2.81.77,4.57,4.57,0,0,1-3.63-1.46,6.35,6.35,0,0,1-1.26-4.27V9.94Z" fill="#150e60"/>
    <path d="M172.63,25.11a4.59,4.59,0,0,1-3.36-1.18,4.44,4.44,0,0,1-1.2-3.31,4.24,4.24,0,0,1,1.5-3.52,7,7,0,0,1,4.36-1.25l3.19,0v-.75a3.8,3.8,0,0,0-.5-2.17,1.91,1.91,0,0,0-1.66-.72,2.2,2.2,0,0,0-1.57.49,2.59,2.59,0,0,0-.62,1.62l-4-.2a4.79,4.79,0,0,1,2-3.29,7.66,7.66,0,0,1,4.4-1.12,6.2,6.2,0,0,1,4.34,1.39A5.11,5.11,0,0,1,181,15v5.43a3.81,3.81,0,0,0,.28,1.73,1,1,0,0,0,.94.47,4.71,4.71,0,0,0,.85-.08v2.09l-.62.15a3.45,3.45,0,0,1-.54.11l-.58.07c-.21,0-.46,0-.72,0a2.94,2.94,0,0,1-2.16-.71,3.37,3.37,0,0,1-.82-2.11h-.09A5.28,5.28,0,0,1,172.63,25.11Zm4.48-7.17-2,0a6.11,6.11,0,0,0-1.9.29,1.79,1.79,0,0,0-.86.74,2.59,2.59,0,0,0-.29,1.31,2.25,2.25,0,0,0,.48,1.58,1.73,1.73,0,0,0,1.3.52,2.89,2.89,0,0,0,1.66-.5,3.42,3.42,0,0,0,1.17-1.37,4.22,4.22,0,0,0,.43-1.85v-.75Z" fill="#150e60"/>
    <path d="M184.32,24.84V4.4h3.85V24.84Z" fill="#150e60"/>
    <path d="M205.19,24.84l-1.71-5h-7.37l-1.71,5h-4l7-19.4h4.78l7,19.4Zm-5.4-16.42-.08.3c-.09.34-.21.71-.34,1.13s-.91,2.75-2.35,7h5.56l-1.91-5.58-.59-1.88Z" fill="#150e60"/>
    <path d="M211.39,7.25V4.4h3.85V7.25Zm0,17.59V9.94h3.85v14.9Z" fill="#150e60"/>
    <path d="M228.31,24.84c0-.14-.07-.49-.13-1s-.07-1-.07-1.38h-.06c-.83,1.8-2.42,2.7-4.74,2.7a4.59,4.59,0,0,1-4-2,9.78,9.78,0,0,1-1.41-5.68,9.59,9.59,0,0,1,1.48-5.72,4.92,4.92,0,0,1,4.22-2,5.35,5.35,0,0,1,2.72.66,4.32,4.32,0,0,1,1.76,2h0l0-2.45V4.4h3.85V21.59c0,.92,0,2,.11,3.25Zm-.18-7.54a7,7,0,0,0-.81-3.71A2.63,2.63,0,0,0,225,12.28a2.5,2.5,0,0,0-2.31,1.27,7.72,7.72,0,0,0-.75,3.85c0,3.38,1,5.06,3,5.06a2.62,2.62,0,0,0,2.36-1.34A7.22,7.22,0,0,0,228.13,17.3Z" fill="#150e60"/>
    <path d="M235.29,24.84v-4.2h4v4.2Z" fill="#150e60"/>
    <path d="M262.17,24.84h-4.79l-2.63-11.23c-.32-1.32-.59-2.7-.8-4.15-.22,1.2-.4,2.12-.54,2.75S252.3,17,250.48,24.83h-4.79l-5-19.4h4.1L247.6,18l.64,3c.26-1.27.5-2.49.75-3.66s1.15-5.12,2.73-11.9h4.53l2.44,10.33c.19.76.52,2.51,1,5.23L260,19.4l.73-3.17,2.34-10.79h4.09Z" fill="#150e60"/>
    <path d="M282.25,17.38a7.81,7.81,0,0,1-2,5.68,7.37,7.37,0,0,1-5.54,2.06,7.18,7.18,0,0,1-5.44-2.06,7.92,7.92,0,0,1-2-5.67,7.84,7.84,0,0,1,2-5.66,8.59,8.59,0,0,1,11.08-.07A7.94,7.94,0,0,1,282.25,17.38Zm-4,0a6.78,6.78,0,0,0-.86-3.86,2.92,2.92,0,0,0-2.51-1.19c-2.34,0-3.5,1.68-3.5,5a6.92,6.92,0,0,0,.86,3.79,2.8,2.8,0,0,0,2.47,1.3C277,22.46,278.22,20.77,278.22,17.38Z" fill="#150e60"/>
    <path d="M284.8,24.84V13.44q0-1.23,0-2c0-.55,0-1-.08-1.46h3.68c0,.16.06.67.11,1.51s.06,1.39.06,1.67h.06a10.65,10.65,0,0,1,1-2.21,2.84,2.84,0,0,1,1-.95,3.33,3.33,0,0,1,1.5-.31,2.88,2.88,0,0,1,1.2.2v3.24a7.59,7.59,0,0,0-1.65-.2,2.58,2.58,0,0,0-2.24,1.16,6.09,6.09,0,0,0-.81,3.47v7.31H284.8Z" fill="#150e60"/>
    <path d="M295.22,24.84V4.4h3.85V24.84Z" fill="#150e60"/>
    <path d="M312.14,24.84a8.19,8.19,0,0,1-.13-1,12.75,12.75,0,0,1-.08-1.38h-.05c-.83,1.8-2.42,2.7-4.74,2.7a4.56,4.56,0,0,1-4-2,9.78,9.78,0,0,1-1.41-5.68,9.52,9.52,0,0,1,1.48-5.72,4.92,4.92,0,0,1,4.22-2,5.37,5.37,0,0,1,2.72.66,4.37,4.37,0,0,1,1.76,2h0l0-2.45V4.4h3.85V21.59c0,.92,0,2,.11,3.25ZM312,17.3a7.05,7.05,0,0,0-.8-3.71,2.64,2.64,0,0,0-2.37-1.31,2.48,2.48,0,0,0-2.3,1.27,7.61,7.61,0,0,0-.75,3.85c0,3.38,1,5.06,3,5.06a2.63,2.63,0,0,0,2.36-1.34A7.32,7.32,0,0,0,312,17.3Z" fill="#150e60"/>
  </g>
</svg>
