<?xml version="1.0" standalone="no"?>
<!DOCTYPE svg PUBLIC "-//W3C//DTD SVG 20010904//EN"
 "http://www.w3.org/TR/2001/REC-SVG-20010904/DTD/svg10.dtd">
<svg version="1.0" xmlns="http://www.w3.org/2000/svg"
 width="300.000000pt" height="300.000000pt" viewBox="0 0 300.000000 300.000000"
 preserveAspectRatio="xMidYMid meet">
<metadata>
Created by potrace 1.11, written by Peter Selinger 2001-2013
</metadata>
<g transform="translate(0.000000,300.000000) scale(0.100000,-0.100000)"
fill="#000000" stroke="none">
<path d="M738 2525 c-1 -2 -19 -6 -40 -9 -106 -17 -233 -90 -337 -194 -68 -68
-121 -128 -121 -136 0 -3 -14 -25 -31 -50 -59 -89 -137 -278 -153 -377 -3 -19
-9 -45 -12 -59 -4 -14 -8 -95 -10 -180 -4 -221 28 -386 111 -555 113 -232 270
-373 505 -451 l85 -29 790 0 790 0 77 31 c191 78 362 255 470 485 30 63 76
205 84 258 3 20 10 56 14 81 15 82 10 286 -10 399 -48 265 -156 465 -329 607
-81 67 -172 115 -286 151 l-90 28 -752 2 c-413 1 -753 0 -755 -2z m706 -503
c202 -357 285 -474 405 -560 34 -25 37 -30 34 -72 -2 -38 -8 -81 -19 -125 -19
-83 -104 -222 -191 -314 l-61 -64 -51 87 c-28 48 -51 88 -51 90 0 8 -118 205
-161 267 -37 55 -153 178 -217 230 -15 13 -19 26 -16 60 8 106 58 238 127 333
37 52 135 156 146 156 3 0 28 -39 55 -88z"/>
</g>
</svg>
